<svg width="48" height="48" viewBox="0 0 48 48" fill="none" xmlns="http://www.w3.org/2000/svg">
<path d="M8.42426 7.57574C8.18995 7.34142 7.81005 7.34142 7.57574 7.57574L3.75736 11.3941C3.52304 11.6284 3.52304 12.0083 3.75736 12.2426C3.99167 12.477 4.37157 12.477 4.60589 12.2426L8 8.84853L11.3941 12.2426C11.6284 12.477 12.0083 12.477 12.2426 12.2426C12.477 12.0083 12.477 11.6284 12.2426 11.3941L8.42426 7.57574ZM8.6 40L8.6 8H7.4L7.4 40H8.6Z" fill="#88FF00"/>
<path d="M40.4243 40.4243C40.6586 40.1899 40.6586 39.8101 40.4243 39.5757L36.6059 35.7574C36.3716 35.523 35.9917 35.523 35.7574 35.7574C35.523 35.9917 35.523 36.3716 35.7574 36.6059L39.1515 40L35.7574 43.3941C35.523 43.6284 35.523 44.0083 35.7574 44.2426C35.9917 44.477 36.3716 44.477 36.6059 44.2426L40.4243 40.4243ZM8 40.6L40 40.6V39.4L8 39.4V40.6Z" fill="#FF0000"/>
<path d="M30.6 18C30.6 17.6686 30.3314 17.4 30 17.4H24.6C24.2686 17.4 24 17.6686 24 18C24 18.3314 24.2686 18.6 24.6 18.6L29.4 18.6L29.4 23.4C29.4 23.7314 29.6686 24 30 24C30.3314 24 30.6 23.7314 30.6 23.4V18ZM8.42426 40.4243L30.4243 18.4243L29.5757 17.5757L7.57574 39.5757L8.42426 40.4243Z" fill="#0088FF"/>
</svg>
