<svg width="48" height="48" viewBox="0 0 48 48" fill="none" xmlns="http://www.w3.org/2000/svg">
<path d="M6.52244 16.7605L16.7606 6.52241L31.2395 6.52241L41.4776 16.7605L41.4776 31.2395L31.2395 41.4776L16.7606 41.4776L6.52244 31.2395L6.52244 16.7605Z" fill="#BB0101" stroke="black" stroke-width="2"/>
<path d="M25.4099 24L31.7099 17.71C31.8982 17.5217 32.004 17.2663 32.004 17C32.004 16.7337 31.8982 16.4783 31.7099 16.29C31.5216 16.1017 31.2662 15.9959 30.9999 15.9959C30.7336 15.9959 30.4782 16.1017 30.2899 16.29L23.9999 22.59L17.7099 16.29C17.5216 16.1017 17.2662 15.9959 16.9999 15.9959C16.7336 15.9959 16.4782 16.1017 16.2899 16.29C16.1016 16.4783 15.9958 16.7337 15.9958 17C15.9958 17.2663 16.1016 17.5217 16.2899 17.71L22.5899 24L16.2899 30.29C16.1962 30.383 16.1218 30.4936 16.071 30.6154C16.0203 30.7373 15.9941 30.868 15.9941 31C15.9941 31.132 16.0203 31.2627 16.071 31.3846C16.1218 31.5064 16.1962 31.617 16.2899 31.71C16.3829 31.8037 16.4935 31.8781 16.6154 31.9289C16.7372 31.9797 16.8679 32.0058 16.9999 32.0058C17.132 32.0058 17.2627 31.9797 17.3845 31.9289C17.5064 31.8781 17.617 31.8037 17.7099 31.71L23.9999 25.41L30.2899 31.71C30.3829 31.8037 30.4935 31.8781 30.6154 31.9289C30.7372 31.9797 30.8679 32.0058 30.9999 32.0058C31.132 32.0058 31.2627 31.9797 31.3845 31.9289C31.5064 31.8781 31.617 31.8037 31.7099 31.71C31.8037 31.617 31.8781 31.5064 31.9288 31.3846C31.9796 31.2627 32.0057 31.132 32.0057 31C32.0057 30.868 31.9796 30.7373 31.9288 30.6154C31.8781 30.4936 31.8037 30.383 31.7099 30.29L25.4099 24Z" fill="white"/>
</svg>
