<svg width="48" height="48" viewBox="0 0 48 48" fill="none" xmlns="http://www.w3.org/2000/svg">
<path fill-rule="evenodd" clip-rule="evenodd" d="M40 24C40 32.8366 32.8366 40 24 40C15.1634 40 8 32.8366 8 24C8 15.1634 15.1634 8 24 8C32.8366 8 40 15.1634 40 24ZM44 24C44 35.0457 35.0457 44 24 44C12.9543 44 4 35.0457 4 24C4 12.9543 12.9543 4 24 4C35.0457 4 44 12.9543 44 24ZM24 18C22.6193 18 21.5 16.8807 21.5 15.5C21.5 14.1193 22.6193 13 24 13C25.3807 13 26.5 14.1193 26.5 15.5C26.5 16.8807 25.3807 18 24 18ZM23.98 35C22.8754 35 21.98 34.1046 21.98 33V23C21.98 21.8954 22.8754 21 23.98 21C25.0845 21 25.98 21.8954 25.98 23V33C25.98 34.1046 25.0845 35 23.98 35Z" fill="black"/>
</svg>
