<?xml version="1.0" encoding="utf-8"?>
<!-- Generator: Adobe Illustrator 24.1.1, SVG Export Plug-In . SVG Version: 6.00 Build 0)  -->
<svg version="1.1" id="Layer_1" xmlns="http://www.w3.org/2000/svg" xmlns:xlink="http://www.w3.org/1999/xlink" x="0px" y="0px"
	 viewBox="0 0 512 512" style="enable-background:new 0 0 512 512;" xml:space="preserve">
<g>
	<path d="M256,512C114.63,512,0,397.38,0,256C0,114.6,114.63,0,256,0c141.4,0,256,114.6,256,256C512,397.38,397.4,512,256,512z
		 M256,460.8c113.13,0,204.8-91.7,204.8-204.8S369.13,51.2,256,51.2C142.9,51.2,51.2,142.9,51.2,256S142.9,460.8,256,460.8z
		 M256,204.8c14.15,0,25.6,11.45,25.6,25.6v128c0,14.13-11.45,25.6-25.6,25.6c-14.13,0-25.6-11.48-25.6-25.6v-128
		C230.4,216.25,241.88,204.8,256,204.8z M256,179.2c-14.13,0-25.6-11.47-25.6-25.6c0-14.15,11.48-25.6,25.6-25.6
		c14.15,0,25.6,11.45,25.6,25.6C281.6,167.73,270.15,179.2,256,179.2z"/>
</g>
</svg>
