<svg width="48" height="48" viewBox="0 0 48 48" fill="none" xmlns="http://www.w3.org/2000/svg">
<path fill-rule="evenodd" clip-rule="evenodd" d="M14.3333 7H17.6667C18.5507 7 19.3986 7.35821 20.0237 7.99584C20.6488 8.63346 21 9.49826 21 10.4V37.6C21 38.5017 20.6488 39.3665 20.0237 40.0042C19.3986 40.6418 18.5507 41 17.6667 41H14.3333C13.4493 41 12.6014 40.6418 11.9763 40.0042C11.3512 39.3665 11 38.5017 11 37.6V10.4C11 9.49826 11.3512 8.63346 11.9763 7.99584C12.6014 7.35821 13.4493 7 14.3333 7ZM30.3333 7H33.6667C34.5507 7 35.3986 7.35821 36.0237 7.99584C36.6488 8.63346 37 9.49826 37 10.4V37.6C37 38.5017 36.6488 39.3665 36.0237 40.0042C35.3986 40.6418 34.5507 41 33.6667 41H30.3333C29.4493 41 28.6014 40.6418 27.9763 40.0042C27.3512 39.3665 27 38.5017 27 37.6V10.4C27 9.49826 27.3512 8.63346 27.9763 7.99584C28.6014 7.35821 29.4493 7 30.3333 7Z" fill="black"/>
</svg>
