<svg width="48" height="48" viewBox="0 0 48 48" fill="none" xmlns="http://www.w3.org/2000/svg">
<path d="M10.5 41.9999C10.1022 41.9999 9.72064 41.8419 9.43934 41.5606C9.15804 41.2792 9 40.8977 9 40.4999V7.49989C8.99998 7.23922 9.06789 6.98304 9.19704 6.75661C9.32619 6.53018 9.51212 6.34131 9.7365 6.20863C9.96088 6.07595 10.216 6.00403 10.4766 5.99996C10.7372 5.99589 10.9944 6.05982 11.2229 6.18544L41.2228 22.6854C41.4582 22.8149 41.6545 23.0051 41.7912 23.2363C41.9279 23.4675 42.0001 23.7312 42.0001 23.9998C42.0001 24.2684 41.9279 24.5321 41.7912 24.7633C41.6545 24.9945 41.4582 25.1848 41.2228 25.3142L11.2229 41.8142C11.0014 41.936 10.7527 41.9998 10.5 41.9999Z" fill="black"/>
</svg>
