<?xml version="1.0" encoding="utf-8"?>
<!-- Svg Vector Icons : http://www.onlinewebfonts.com/icon -->
<!DOCTYPE svg PUBLIC "-//W3C//DTD SVG 1.1//EN" "http://www.w3.org/Graphics/SVG/1.1/DTD/svg11.dtd">
<svg version="1.1" xmlns="http://www.w3.org/2000/svg" xmlns:xlink="http://www.w3.org/1999/xlink" x="0px" y="0px" viewBox="0 0 1000 1000" enable-background="new 0 0 1000 1000" xml:space="preserve">
<metadata> Svg Vector Icons : http://www.onlinewebfonts.com/icon </metadata>
<g><g transform="translate(0.000000,511.000000) scale(0.100000,-0.100000)"><path d="M4716.7,4962.6c-177.1-62-351.2-224.3-442.6-410.2c-70.8-144.6-76.7-188.9-64.9-392.5c47.2-811.5,823.3-1215.8,1310.2-678.7c165.3,182.9,256.7,410.2,271.5,678.7c11.8,203.6,5.9,247.9-64.9,392.5C5540,4927.2,5109.2,5101.3,4716.7,4962.6z M5180,4499.3c185.9-126.9,218.4-292.1,103.3-540c-73.8-156.4-197.7-277.4-283.3-277.4c-85.6,0-209.5,121-283.3,277.4c-115.1,247.9-82.6,413.1,103.3,540c56.1,38.4,135.7,67.9,180,67.9C5044.3,4567.2,5123.9,4537.6,5180,4499.3z"/><path d="M3722.3,3056.3c-79.7-62-646.3-1434.1-622.6-1507.9c35.4-115.1,103.3-168.2,218.4-168.2c67.9,0,126.9,20.7,153.5,53.1c67.9,73.8,613.8,1378.1,613.8,1460.7C4085.2,3044.5,3849.1,3150.7,3722.3,3056.3z"/><path d="M4843.6,3038.6c-29.5-29.5-50.2-70.8-50.2-88.5c0-23.6-64.9-35.4-188.9-35.4c-233.1,0-342.3-70.8-342.3-218.4c0-153.5,97.4-224.3,318.7-224.3h183v-103.3v-103.3h-357.1h-357.1l-88.5-88.5c-70.8-73.8-85.6-106.2-67.9-171.2c41.3-174.1,100.3-197.7,501.7-206.6l368.9-11.8v-100.3v-100.3h-377.7c-324.6,0-386.6-8.8-424.9-50.2c-70.8-79.7-88.5-177.1-50.2-250.8c67.9-126.9,112.1-138.7,492.8-141.6h360v-103.3V937.5h-147.5c-253.8,0-374.8-188.9-233.1-365.9c50.2-64.9,82.6-76.7,209.5-76.7c135.7,0,162.3-11.8,230.2-94.4c59-70.8,103.3-91.5,177.1-91.5c73.8,0,118,20.6,177.1,91.5c67.9,82.6,94.4,94.4,230.2,94.4c126.9,0,159.4,11.8,209.5,76.7c82.6,103.3,76.7,203.6-11.8,292.1c-56.1,59-100.3,73.8-221.3,73.8h-147.5v103.3v103.3h363c377.7,3,422,14.8,489.9,141.6c38.4,73.8,20.6,171.2-50.2,250.8c-38.4,41.3-100.3,50.2-425,50.2h-377.7v100.3v100.3l368.9,11.8c330.5,8.8,374.8,14.7,430.8,73.8c94.4,91.5,88.5,236.1-14.8,324.6c-73.8,62-106.2,67.9-433.8,67.9h-351.2v103.3V2472H5422c156.4,0,197.7,11.8,250.8,67.9c91.5,97.4,85.6,236.1-11.8,312.8c-62,47.2-121,62-265.6,62c-138.7,0-188.9,11.8-188.9,38.3C5206.6,3079.9,4935.1,3141.9,4843.6,3038.6z"/><path d="M5979.7,3023.8c-35.4-38.4-64.9-100.3-64.9-135.7c0-82.6,548.9-1384,613.8-1454.8c26.6-32.5,85.6-53.1,153.5-53.1c115.1,0,183,53.1,218.4,168.2c23.6,73.8-545.9,1445.9-622.7,1507.9C6198.1,3115.3,6050.5,3100.5,5979.7,3023.8z"/><path d="M3167.5,1176.6l-70.8-56.1V376.9v-743.6l70.8-56.1c38.4-29.5,106.2-56.1,150.5-56.1s112.1,26.5,150.5,56.1l70.8,56.1v743.6v743.6l-70.8,56.1c-38.4,29.5-106.2,56.1-150.5,56.1S3205.8,1206.1,3167.5,1176.6z"/><path d="M6531.5,1176.6l-70.8-56.1V376.9v-743.6l70.8-56.1c38.4-29.5,106.2-56.1,150.5-56.1s112.1,26.5,150.5,56.1l70.8,56.1v743.6v743.6l-70.8,56.1c-38.4,29.5-106.2,56.1-150.5,56.1S6569.9,1206.1,6531.5,1176.6z"/><path d="M4542.6,114.2C4085.2-0.8,3890.5-505.5,4153.1-895c123.9-185.9,339.4-191.8,424.9-14.8c44.3,97.4,44.3,106.3-17.7,209.5c-126.9,218.3-44.3,398.4,165.3,354.1c144.6-32.5,404.3-32.5,548.9,0c206.6,44.3,292.2-135.8,168.2-348.2c-100.3-171.2-8.8-345.3,177.1-345.3c271.5,0,439.7,498.7,274.4,811.5c-153.4,292.1-510.5,430.8-799.7,312.8c-70.8-29.5-115.1-32.5-174.1-8.8C4799.3,123.1,4642.9,140.8,4542.6,114.2z"/><path d="M4229.8-1213.7c-67.9-56.1-70.8-70.8-79.7-575.4l-8.9-519.3l73.8-73.8c88.5-88.5,218.4-97.4,315.8-17.7c67.9,53.1,70.8,73.8,79.7,522.3c5.9,253.8,3,495.7-8.8,534.1C4560.3-1169.4,4365.6-1104.5,4229.8-1213.7z"/><path d="M5472.1-1216.6c-85.6-85.6-94.4-153.5-82.6-661c8.9-448.5,11.8-469.2,79.7-522.3c88.5-70.8,212.5-70.8,301,0c70.8,56.1,70.8,64.9,70.8,593.2c0,528.2,0,537.1-70.8,593.1C5681.6-1139.9,5545.9-1142.9,5472.1-1216.6z"/><path d="M4229.8-2659.6l-85.6-85.6V-3238v-492.8l85.6-85.6c106.2-103.3,180-109.2,289.2-14.8l82.6,70.8v522.3v522.3l-82.6,70.8C4409.8-2550.4,4336-2556.3,4229.8-2659.6z"/><path d="M5481-2644.9l-82.6-70.8V-3238v-522.3l82.6-70.8c109.2-94.4,183-88.5,289.2,14.8l85.6,85.6v492.8v492.8l-85.6,85.6C5664-2556.3,5590.2-2550.4,5481-2644.9z"/><path d="M4046.9-4253.1c-253.8-259.7-280.3-336.4-153.5-460.3c123.9-126.9,227.2-100.3,448.5,112.1c106.2,100.3,212.5,224.3,233.1,277.4c70.8,168.2-26.6,303.9-218.4,303.9C4288.8-4020,4226.9-4067.2,4046.9-4253.1z"/><path d="M5481-4064.3c-82.6-59-109.2-174.1-56.1-274.4c23.6-44.3,126.9-162.3,233.1-262.6c221.3-212.5,324.6-239,448.5-112.1c126.9,123.9,100.3,200.7-153.4,460.3C5711.2-4002.3,5619.7-3966.9,5481-4064.3z"/></g></g>
</svg>