<svg width="48" height="48" viewBox="0 0 48 48" fill="none" xmlns="http://www.w3.org/2000/svg">
<path d="M26.82 24L39.42 11.42C39.7966 11.0434 40.0082 10.5326 40.0082 10C40.0082 9.4674 39.7966 8.95661 39.42 8.58C39.0434 8.20339 38.5326 7.99182 38 7.99182C37.4674 7.99182 36.9566 8.20339 36.58 8.58L24 21.18L11.42 8.58C11.0434 8.20339 10.5326 7.99182 10 7.99182C9.4674 7.99182 8.95661 8.20339 8.58 8.58C8.20339 8.95661 7.99182 9.4674 7.99182 10C7.99182 10.5326 8.20339 11.0434 8.58 11.42L21.18 24L8.58 36.58C8.39254 36.7659 8.24375 36.9871 8.14222 37.2308C8.04068 37.4746 7.9884 37.736 7.9884 38C7.9884 38.264 8.04068 38.5254 8.14222 38.7692C8.24375 39.0129 8.39254 39.2341 8.58 39.42C8.76593 39.6075 8.98713 39.7562 9.23085 39.8578C9.47456 39.9593 9.73598 40.0116 10 40.0116C10.264 40.0116 10.5254 39.9593 10.7692 39.8578C11.0129 39.7562 11.2341 39.6075 11.42 39.42L24 26.82L36.58 39.42C36.7659 39.6075 36.9871 39.7562 37.2308 39.8578C37.4746 39.9593 37.736 40.0116 38 40.0116C38.264 40.0116 38.5254 39.9593 38.7692 39.8578C39.0129 39.7562 39.2341 39.6075 39.42 39.42C39.6075 39.2341 39.7562 39.0129 39.8578 38.7692C39.9593 38.5254 40.0116 38.264 40.0116 38C40.0116 37.736 39.9593 37.4746 39.8578 37.2308C39.7562 36.9871 39.6075 36.7659 39.42 36.58L26.82 24Z" fill="black"/>
</svg>
