<?xml version="1.0" encoding="UTF-8"?><svg xmlns="http://www.w3.org/2000/svg" xmlns:xlink="http://www.w3.org/1999/xlink" fill-opacity="1" color-rendering="auto" color-interpolation="auto" text-rendering="auto" stroke="black" stroke-linecap="square" width="537" stroke-miterlimit="10" shape-rendering="auto" stroke-opacity="1" fill="black" stroke-dasharray="none" font-weight="normal" stroke-width="1" height="630" font-family="'Dialog'" font-style="normal" stroke-linejoin="miter" font-size="12px" stroke-dashoffset="0" image-rendering="auto">
  <!--Generated by ySVG 2.5-->
  <defs id="genericDefs"/>
  <g>
    <defs id="defs1">
      <clipPath clipPathUnits="userSpaceOnUse" id="clipPath1">
        <path d="M0 0 L537 0 L537 630 L0 630 L0 0 Z"/>
      </clipPath>
      <clipPath clipPathUnits="userSpaceOnUse" id="clipPath2">
        <path d="M315 -21 L852 -21 L852 609 L315 609 L315 -21 Z"/>
      </clipPath>
    </defs>
    <g fill="white" text-rendering="geometricPrecision" shape-rendering="geometricPrecision" transform="translate(-315,21)" stroke="white">
      <rect x="315" width="537" height="630" y="-21" clip-path="url(#clipPath2)" stroke="none"/>
    </g>
    <g fill="rgb(245,245,245)" text-rendering="geometricPrecision" shape-rendering="geometricPrecision" transform="matrix(1,0,0,1,-315,21)" stroke="rgb(245,245,245)">
      <rect x="330" y="191.4604" clip-path="url(#clipPath2)" width="506" rx="4" ry="4" height="143.3765" stroke="none"/>
      <rect x="330" y="191.4604" clip-path="url(#clipPath2)" fill="rgb(235,235,235)" width="506" height="22.3765" stroke="none"/>
    </g>
    <g font-size="15px" stroke-linecap="butt" transform="matrix(1,0,0,1,-315,21)" text-rendering="geometricPrecision" font-family="sans-serif" shape-rendering="geometricPrecision" stroke-miterlimit="1.45">
      <text x="783.9683" xml:space="preserve" y="208.541" clip-path="url(#clipPath2)" stroke="none">shared/</text>
      <rect x="330" y="191.4604" clip-path="url(#clipPath2)" fill="none" width="506" stroke-dasharray="6,2" rx="4" ry="4" height="143.3765"/>
    </g>
    <g fill="rgb(255,153,0)" text-rendering="geometricPrecision" shape-rendering="geometricPrecision" transform="matrix(1,0,0,1,-315,21)" stroke="rgb(255,153,0)">
      <rect x="445" y="228.8369" clip-path="url(#clipPath2)" width="247" rx="4" ry="4" height="91" stroke="none"/>
    </g>
    <g text-rendering="geometricPrecision" stroke-miterlimit="1.45" shape-rendering="geometricPrecision" transform="matrix(1,0,0,1,-315,21)" stroke-linecap="butt">
      <rect x="445" y="228.8369" clip-path="url(#clipPath2)" fill="none" width="247" rx="4" ry="4" height="91"/>
      <text x="451" xml:space="preserve" y="279.0508" clip-path="url(#clipPath2)" font-family="sans-serif" stroke="none">Middleware &amp; Feature Libraries</text>
    </g>
    <g fill="rgb(245,245,245)" text-rendering="geometricPrecision" shape-rendering="geometricPrecision" transform="matrix(1,0,0,1,-315,21)" stroke="rgb(245,245,245)">
      <rect x="330" y="341.7246" clip-path="url(#clipPath2)" width="506" rx="4" ry="4" height="251.3765" stroke="none"/>
      <rect x="330" y="341.7246" clip-path="url(#clipPath2)" fill="rgb(235,235,235)" width="506" height="22.3765" stroke="none"/>
    </g>
    <g font-size="15px" stroke-linecap="butt" transform="matrix(1,0,0,1,-315,21)" text-rendering="geometricPrecision" font-family="sans-serif" shape-rendering="geometricPrecision" stroke-miterlimit="1.45">
      <text x="809.8374" xml:space="preserve" y="358.8052" clip-path="url(#clipPath2)" stroke="none">src/</text>
      <rect x="330" y="341.7246" clip-path="url(#clipPath2)" fill="none" width="506" stroke-dasharray="6,2" rx="4" ry="4" height="251.3765"/>
    </g>
    <g fill="rgb(204,255,255)" text-rendering="geometricPrecision" shape-rendering="geometricPrecision" transform="matrix(1,0,0,1,-315,21)" stroke="rgb(204,255,255)">
      <rect x="575.7008" y="487.1011" clip-path="url(#clipPath2)" width="245.2992" rx="4" ry="4" height="91" stroke="none"/>
    </g>
    <g text-rendering="geometricPrecision" stroke-miterlimit="1.45" shape-rendering="geometricPrecision" transform="matrix(1,0,0,1,-315,21)" stroke-linecap="butt">
      <rect x="575.7008" y="487.1011" clip-path="url(#clipPath2)" fill="none" width="245.2992" rx="4" ry="4" height="91"/>
      <text x="581.7008" xml:space="preserve" y="537.3149" clip-path="url(#clipPath2)" font-family="sans-serif" stroke="none">Interfaces</text>
    </g>
    <g fill="rgb(204,255,255)" text-rendering="geometricPrecision" shape-rendering="geometricPrecision" transform="matrix(1,0,0,1,-315,21)" stroke="rgb(204,255,255)">
      <rect x="529" y="379.1011" clip-path="url(#clipPath2)" width="247" rx="4" ry="4" height="91" stroke="none"/>
    </g>
    <g text-rendering="geometricPrecision" stroke-miterlimit="1.45" shape-rendering="geometricPrecision" transform="matrix(1,0,0,1,-315,21)" stroke-linecap="butt">
      <rect x="529" y="379.1011" clip-path="url(#clipPath2)" fill="none" width="247" rx="4" ry="4" height="91"/>
      <text x="535" xml:space="preserve" y="429.3149" clip-path="url(#clipPath2)" font-family="sans-serif" stroke="none">Modules</text>
    </g>
    <g fill="rgb(255,204,0)" text-rendering="geometricPrecision" shape-rendering="geometricPrecision" transform="matrix(1,0,0,1,-315,21)" stroke="rgb(255,204,0)">
      <rect x="653.76" y="500.1011" clip-path="url(#clipPath2)" width="74" rx="4" ry="4" height="30" stroke="none"/>
    </g>
    <g text-rendering="geometricPrecision" stroke-miterlimit="1.45" shape-rendering="geometricPrecision" transform="matrix(1,0,0,1,-315,21)" stroke-linecap="butt">
      <rect x="653.76" y="500.1011" clip-path="url(#clipPath2)" fill="none" width="74" rx="4" ry="4" height="30"/>
      <text x="662.0901" xml:space="preserve" y="519.8149" clip-path="url(#clipPath2)" font-family="sans-serif" stroke="none">Filesystem</text>
    </g>
    <g fill="rgb(255,204,0)" text-rendering="geometricPrecision" shape-rendering="geometricPrecision" transform="matrix(1,0,0,1,-315,21)" stroke="rgb(255,204,0)">
      <rect x="610" y="392.1011" clip-path="url(#clipPath2)" width="74" rx="4" ry="4" height="30" stroke="none"/>
    </g>
    <g text-rendering="geometricPrecision" stroke-miterlimit="1.45" shape-rendering="geometricPrecision" transform="matrix(1,0,0,1,-315,21)" stroke-linecap="butt">
      <rect x="610" y="392.1011" clip-path="url(#clipPath2)" fill="none" width="74" rx="4" ry="4" height="30"/>
      <text x="619.9824" xml:space="preserve" y="411.8149" clip-path="url(#clipPath2)" font-family="sans-serif" stroke="none">Threading</text>
    </g>
    <g fill="rgb(255,204,0)" text-rendering="geometricPrecision" shape-rendering="geometricPrecision" transform="matrix(1,0,0,1,-315,21)" stroke="rgb(255,204,0)">
      <rect x="746" y="500.1011" clip-path="url(#clipPath2)" width="65" rx="4" ry="4" height="30" stroke="none"/>
    </g>
    <g text-rendering="geometricPrecision" stroke-miterlimit="1.45" shape-rendering="geometricPrecision" transform="matrix(1,0,0,1,-315,21)" stroke-linecap="butt">
      <rect x="746" y="500.1011" clip-path="url(#clipPath2)" fill="none" width="65" rx="4" ry="4" height="30"/>
      <text x="757.1572" xml:space="preserve" y="519.8149" clip-path="url(#clipPath2)" font-family="sans-serif" stroke="none">Sockets</text>
    </g>
    <g fill="rgb(255,204,0)" text-rendering="geometricPrecision" shape-rendering="geometricPrecision" transform="matrix(1,0,0,1,-315,21)" stroke="rgb(255,204,0)">
      <rect x="695" y="392.1011" clip-path="url(#clipPath2)" width="56" rx="4" ry="4" height="30" stroke="none"/>
    </g>
    <g text-rendering="geometricPrecision" stroke-miterlimit="1.45" shape-rendering="geometricPrecision" transform="matrix(1,0,0,1,-315,21)" stroke-linecap="butt">
      <rect x="695" y="392.1011" clip-path="url(#clipPath2)" fill="none" width="56" rx="4" ry="4" height="30"/>
      <text x="703.3213" xml:space="preserve" y="411.8149" clip-path="url(#clipPath2)" font-family="sans-serif" stroke="none">Plugins</text>
    </g>
    <g fill="rgb(255,204,0)" text-rendering="geometricPrecision" shape-rendering="geometricPrecision" transform="matrix(1,0,0,1,-315,21)" stroke="rgb(255,204,0)">
      <rect x="610" y="427.1011" clip-path="url(#clipPath2)" width="113" rx="4" ry="4" height="30" stroke="none"/>
    </g>
    <g text-rendering="geometricPrecision" stroke-miterlimit="1.45" shape-rendering="geometricPrecision" transform="matrix(1,0,0,1,-315,21)" stroke-linecap="butt">
      <rect x="610" y="427.1011" clip-path="url(#clipPath2)" fill="none" width="113" rx="4" ry="4" height="30"/>
      <text x="616.4668" xml:space="preserve" y="446.8149" clip-path="url(#clipPath2)" font-family="sans-serif" stroke="none">UniqueComponent</text>
    </g>
    <g fill="lime" text-rendering="geometricPrecision" shape-rendering="geometricPrecision" transform="matrix(1,0,0,1,-315,21)" stroke="lime">
      <rect x="345" y="487.1011" clip-path="url(#clipPath2)" width="211.8419" rx="4" ry="4" height="91" stroke="none"/>
    </g>
    <g text-rendering="geometricPrecision" stroke-miterlimit="1.45" shape-rendering="geometricPrecision" transform="matrix(1,0,0,1,-315,21)" stroke-linecap="butt">
      <rect x="345" y="487.1011" clip-path="url(#clipPath2)" fill="none" width="211.8419" rx="4" ry="4" height="91"/>
      <text x="352.6699" xml:space="preserve" y="522.6138" clip-path="url(#clipPath2)" font-family="sans-serif" stroke="none">Generic</text>
      <text x="351" xml:space="preserve" y="537.3149" clip-path="url(#clipPath2)" font-family="sans-serif" stroke="none">(header-</text>
      <text x="360.6738" xml:space="preserve" y="552.0161" clip-path="url(#clipPath2)" font-family="sans-serif" stroke="none">only)</text>
    </g>
    <g fill="rgb(204,255,255)" text-rendering="geometricPrecision" shape-rendering="geometricPrecision" transform="matrix(1,0,0,1,-315,21)" stroke="rgb(204,255,255)">
      <rect x="345" y="379.1011" clip-path="url(#clipPath2)" width="171" rx="4" ry="4" height="91" stroke="none"/>
    </g>
    <g text-rendering="geometricPrecision" stroke-miterlimit="1.45" shape-rendering="geometricPrecision" transform="matrix(1,0,0,1,-315,21)" stroke-linecap="butt">
      <rect x="345" y="379.1011" clip-path="url(#clipPath2)" fill="none" width="171" rx="4" ry="4" height="91"/>
      <text x="351" xml:space="preserve" y="429.3149" clip-path="url(#clipPath2)" font-family="sans-serif" stroke="none">Meta</text>
    </g>
    <g fill="rgb(255,204,0)" text-rendering="geometricPrecision" shape-rendering="geometricPrecision" transform="matrix(1,0,0,1,-315,21)" stroke="rgb(255,204,0)">
      <rect x="413" y="392.1011" clip-path="url(#clipPath2)" width="74" rx="4" ry="4" height="30" stroke="none"/>
    </g>
    <g text-rendering="geometricPrecision" stroke-miterlimit="1.45" shape-rendering="geometricPrecision" transform="matrix(1,0,0,1,-315,21)" stroke-linecap="butt">
      <rect x="413" y="392.1011" clip-path="url(#clipPath2)" fill="none" width="74" rx="4" ry="4" height="30"/>
      <text x="424.3154" xml:space="preserve" y="411.8149" clip-path="url(#clipPath2)" font-family="sans-serif" stroke="none">KeyValue</text>
    </g>
    <g fill="rgb(255,204,0)" text-rendering="geometricPrecision" shape-rendering="geometricPrecision" transform="matrix(1,0,0,1,-315,21)" stroke="rgb(255,204,0)">
      <rect x="413" y="427.1011" clip-path="url(#clipPath2)" width="74" rx="4" ry="4" height="30" stroke="none"/>
    </g>
    <g text-rendering="geometricPrecision" stroke-miterlimit="1.45" shape-rendering="geometricPrecision" transform="matrix(1,0,0,1,-315,21)" stroke-linecap="butt">
      <rect x="413" y="427.1011" clip-path="url(#clipPath2)" fill="none" width="74" rx="4" ry="4" height="30"/>
      <text x="426.9902" xml:space="preserve" y="446.8149" clip-path="url(#clipPath2)" font-family="sans-serif" stroke="none">Serialize</text>
    </g>
    <g fill="rgb(255,204,0)" text-rendering="geometricPrecision" shape-rendering="geometricPrecision" transform="matrix(1,0,0,1,-315,21)" stroke="rgb(255,204,0)">
      <rect x="414" y="500.1011" clip-path="url(#clipPath2)" width="74" rx="4" ry="4" height="30" stroke="none"/>
    </g>
    <g text-rendering="geometricPrecision" stroke-miterlimit="1.45" shape-rendering="geometricPrecision" transform="matrix(1,0,0,1,-315,21)" stroke-linecap="butt">
      <rect x="414" y="500.1011" clip-path="url(#clipPath2)" fill="none" width="74" rx="4" ry="4" height="30"/>
      <text x="421.9844" xml:space="preserve" y="519.8149" clip-path="url(#clipPath2)" font-family="sans-serif" stroke="none">Containers</text>
    </g>
    <g fill="rgb(255,204,0)" text-rendering="geometricPrecision" shape-rendering="geometricPrecision" transform="matrix(1,0,0,1,-315,21)" stroke="rgb(255,204,0)">
      <rect x="653.76" y="540.2021" clip-path="url(#clipPath2)" width="157.24" rx="4" ry="4" height="30" stroke="none"/>
    </g>
    <g text-rendering="geometricPrecision" stroke-miterlimit="1.45" shape-rendering="geometricPrecision" transform="matrix(1,0,0,1,-315,21)" stroke-linecap="butt">
      <rect x="653.76" y="540.2021" clip-path="url(#clipPath2)" fill="none" width="157.24" rx="4" ry="4" height="30"/>
      <text x="659.34" xml:space="preserve" y="559.916" clip-path="url(#clipPath2)" font-family="sans-serif" stroke="none">Window/Input Management</text>
    </g>
    <g fill="rgb(255,204,0)" text-rendering="geometricPrecision" shape-rendering="geometricPrecision" transform="matrix(1,0,0,1,-315,21)" stroke="rgb(255,204,0)">
      <rect x="414" y="538.2021" clip-path="url(#clipPath2)" width="74" rx="4" ry="4" height="30" stroke="none"/>
    </g>
    <g text-rendering="geometricPrecision" stroke-miterlimit="1.45" shape-rendering="geometricPrecision" transform="matrix(1,0,0,1,-315,21)" stroke-linecap="butt">
      <rect x="414" y="538.2021" clip-path="url(#clipPath2)" fill="none" width="74" rx="4" ry="4" height="30"/>
      <text x="422.9893" xml:space="preserve" y="557.916" clip-path="url(#clipPath2)" font-family="sans-serif" stroke="none">Templates</text>
      <path fill="none" d="M692.0262 274.3369 L793.6229 274.3369 L793.6229 479.0824" clip-path="url(#clipPath2)"/>
      <path d="M793.6229 487.0824 L798.6229 475.0824 L793.6229 478.0824 L788.6229 475.0824 Z" clip-path="url(#clipPath2)" stroke="none"/>
      <path fill="none" d="M548.508 319.8222 L548.508 371.0759" clip-path="url(#clipPath2)"/>
      <path d="M548.508 379.0759 L553.508 367.0759 L548.508 370.0759 L543.508 367.0759 Z" clip-path="url(#clipPath2)" stroke="none"/>
      <path fill="none" d="M642.5556 470.1093 L642.5556 479.0972" clip-path="url(#clipPath2)"/>
      <path d="M642.5556 487.0972 L647.5556 475.0972 L642.5556 478.0972 L637.5556 475.0972 Z" clip-path="url(#clipPath2)" stroke="none"/>
      <path fill="none" d="M575.6928 532.6011 L564.8369 532.6011" clip-path="url(#clipPath2)"/>
      <path d="M556.8369 532.6011 L568.8369 537.6011 L565.8369 532.6011 L568.8369 527.6011 Z" clip-path="url(#clipPath2)" stroke="none"/>
      <path fill="none" d="M539.4947 470.1306 L539.4947 479.0917" clip-path="url(#clipPath2)"/>
      <path d="M539.4947 487.0917 L544.4947 475.0917 L539.4947 478.0917 L534.4947 475.0917 Z" clip-path="url(#clipPath2)" stroke="none"/>
      <path fill="none" d="M482.5 319.8498 L482.5 371.0831" clip-path="url(#clipPath2)"/>
      <path d="M482.5 379.0831 L487.5 367.0831 L482.5 370.0831 L477.5 367.0831 Z" clip-path="url(#clipPath2)" stroke="none"/>
      <path fill="none" d="M405.6864 470.105 L405.6864 479.1183" clip-path="url(#clipPath2)"/>
      <path d="M405.6864 487.1183 L410.6864 475.1183 L405.6864 478.1183 L400.6864 475.1183 Z" clip-path="url(#clipPath2)" stroke="none"/>
    </g>
    <g fill="rgb(245,245,245)" text-rendering="geometricPrecision" shape-rendering="geometricPrecision" transform="matrix(1,0,0,1,-315,21)" stroke="rgb(245,245,245)">
      <rect x="330" y="-5.8037" clip-path="url(#clipPath2)" width="506" rx="4" ry="4" height="190.3765" stroke="none"/>
      <rect x="330" y="-5.8037" clip-path="url(#clipPath2)" fill="rgb(235,235,235)" width="506" height="22.3765" stroke="none"/>
    </g>
    <g font-size="15px" stroke-linecap="butt" transform="matrix(1,0,0,1,-315,21)" text-rendering="geometricPrecision" font-family="sans-serif" shape-rendering="geometricPrecision" stroke-miterlimit="1.45">
      <text x="782.2983" xml:space="preserve" y="11.2769" clip-path="url(#clipPath2)" stroke="none">plugins/</text>
      <rect x="330" y="-5.8037" clip-path="url(#clipPath2)" fill="none" width="506" stroke-dasharray="6,2" rx="4" ry="4" height="190.3765"/>
    </g>
    <g fill="rgb(204,255,255)" text-rendering="geometricPrecision" shape-rendering="geometricPrecision" transform="matrix(1,0,0,1,-315,21)" stroke="rgb(204,255,255)">
      <rect x="345" y="78.5728" clip-path="url(#clipPath2)" width="476" rx="4" ry="4" height="91" stroke="none"/>
    </g>
    <g text-rendering="geometricPrecision" stroke-miterlimit="1.45" shape-rendering="geometricPrecision" transform="matrix(1,0,0,1,-315,21)" stroke-linecap="butt">
      <rect x="345" y="78.5728" clip-path="url(#clipPath2)" fill="none" width="476" rx="4" ry="4" height="91"/>
      <text x="351" xml:space="preserve" y="128.7866" clip-path="url(#clipPath2)" font-family="sans-serif" stroke="none">Plugins</text>
    </g>
    <g fill="rgb(204,255,255)" text-rendering="geometricPrecision" shape-rendering="geometricPrecision" transform="matrix(1,0,0,1,-315,21)" stroke="rgb(204,255,255)">
      <rect x="345" y="31.5728" clip-path="url(#clipPath2)" width="476" rx="4" ry="4" height="30" stroke="none"/>
    </g>
    <g text-rendering="geometricPrecision" stroke-miterlimit="1.45" shape-rendering="geometricPrecision" transform="matrix(1,0,0,1,-315,21)" stroke-linecap="butt">
      <rect x="345" y="31.5728" clip-path="url(#clipPath2)" fill="none" width="476" rx="4" ry="4" height="30"/>
      <text x="351" xml:space="preserve" y="51.2866" clip-path="url(#clipPath2)" font-family="sans-serif" stroke="none">Tool-Plugins</text>
    </g>
    <g fill="rgb(255,204,0)" text-rendering="geometricPrecision" shape-rendering="geometricPrecision" transform="matrix(1,0,0,1,-315,21)" stroke="rgb(255,204,0)">
      <rect x="736.5" y="91.5728" clip-path="url(#clipPath2)" width="74" rx="4" ry="4" height="30" stroke="none"/>
    </g>
    <g text-rendering="geometricPrecision" stroke-miterlimit="1.45" shape-rendering="geometricPrecision" transform="matrix(1,0,0,1,-315,21)" stroke-linecap="butt">
      <rect x="736.5" y="91.5728" clip-path="url(#clipPath2)" fill="none" width="74" rx="4" ry="4" height="30"/>
      <text x="751.8232" xml:space="preserve" y="103.936" clip-path="url(#clipPath2)" font-family="sans-serif" stroke="none">Tooling-</text>
      <text x="743.4971" xml:space="preserve" y="118.6372" clip-path="url(#clipPath2)" font-family="sans-serif" stroke="none">Framework</text>
    </g>
    <g fill="rgb(255,204,0)" text-rendering="geometricPrecision" shape-rendering="geometricPrecision" transform="matrix(1,0,0,1,-315,21)" stroke="rgb(255,204,0)">
      <rect x="410" y="91.5728" clip-path="url(#clipPath2)" width="74" rx="4" ry="4" height="30" stroke="none"/>
    </g>
    <g text-rendering="geometricPrecision" stroke-miterlimit="1.45" shape-rendering="geometricPrecision" transform="matrix(1,0,0,1,-315,21)" stroke-linecap="butt">
      <rect x="410" y="91.5728" clip-path="url(#clipPath2)" fill="none" width="74" rx="4" ry="4" height="30"/>
      <text x="429.9873" xml:space="preserve" y="111.2866" clip-path="url(#clipPath2)" font-family="sans-serif" stroke="none">Scene</text>
    </g>
    <g fill="rgb(255,204,0)" text-rendering="geometricPrecision" shape-rendering="geometricPrecision" transform="matrix(1,0,0,1,-315,21)" stroke="rgb(255,204,0)">
      <rect x="410" y="131.4604" clip-path="url(#clipPath2)" width="74" rx="4" ry="4" height="30" stroke="none"/>
    </g>
    <g text-rendering="geometricPrecision" stroke-miterlimit="1.45" shape-rendering="geometricPrecision" transform="matrix(1,0,0,1,-315,21)" stroke-linecap="butt">
      <rect x="410" y="131.4604" clip-path="url(#clipPath2)" fill="none" width="74" rx="4" ry="4" height="30"/>
      <text x="415.9805" xml:space="preserve" y="151.1743" clip-path="url(#clipPath2)" font-family="sans-serif" stroke="none">NodeGraph</text>
    </g>
    <g fill="rgb(255,204,0)" text-rendering="geometricPrecision" shape-rendering="geometricPrecision" transform="matrix(1,0,0,1,-315,21)" stroke="rgb(255,204,0)">
      <rect x="493" y="131.4604" clip-path="url(#clipPath2)" width="74" rx="4" ry="4" height="30" stroke="none"/>
    </g>
    <g text-rendering="geometricPrecision" stroke-miterlimit="1.45" shape-rendering="geometricPrecision" transform="matrix(1,0,0,1,-315,21)" stroke-linecap="butt">
      <rect x="493" y="131.4604" clip-path="url(#clipPath2)" fill="none" width="74" rx="4" ry="4" height="30"/>
      <text x="501.3213" xml:space="preserve" y="151.1743" clip-path="url(#clipPath2)" font-family="sans-serif" stroke="none">Resources</text>
    </g>
    <g fill="rgb(255,204,0)" text-rendering="geometricPrecision" shape-rendering="geometricPrecision" transform="matrix(1,0,0,1,-315,21)" stroke="rgb(255,204,0)">
      <rect x="576" y="91.5728" clip-path="url(#clipPath2)" width="74" rx="4" ry="4" height="30" stroke="none"/>
    </g>
    <g text-rendering="geometricPrecision" stroke-miterlimit="1.45" shape-rendering="geometricPrecision" transform="matrix(1,0,0,1,-315,21)" stroke-linecap="butt">
      <rect x="576" y="91.5728" clip-path="url(#clipPath2)" fill="none" width="74" rx="4" ry="4" height="30"/>
      <text x="591.3262" xml:space="preserve" y="111.2866" clip-path="url(#clipPath2)" font-family="sans-serif" stroke="none">Widgets</text>
    </g>
    <g fill="rgb(255,204,0)" text-rendering="geometricPrecision" shape-rendering="geometricPrecision" transform="matrix(1,0,0,1,-315,21)" stroke="rgb(255,204,0)">
      <rect x="576" y="131.4604" clip-path="url(#clipPath2)" width="74" rx="4" ry="4" height="30" stroke="none"/>
    </g>
    <g text-rendering="geometricPrecision" stroke-miterlimit="1.45" shape-rendering="geometricPrecision" transform="matrix(1,0,0,1,-315,21)" stroke-linecap="butt">
      <rect x="576" y="131.4604" clip-path="url(#clipPath2)" fill="none" width="74" rx="4" ry="4" height="30"/>
      <text x="597.6602" xml:space="preserve" y="151.1743" clip-path="url(#clipPath2)" font-family="sans-serif" stroke="none">Client</text>
    </g>
    <g fill="rgb(255,204,0)" text-rendering="geometricPrecision" shape-rendering="geometricPrecision" transform="matrix(1,0,0,1,-315,21)" stroke="rgb(255,204,0)">
      <rect x="656.25" y="91.5728" clip-path="url(#clipPath2)" width="74" rx="4" ry="4" height="30" stroke="none"/>
    </g>
    <g text-rendering="geometricPrecision" stroke-miterlimit="1.45" shape-rendering="geometricPrecision" transform="matrix(1,0,0,1,-315,21)" stroke-linecap="butt">
      <rect x="656.25" y="91.5728" clip-path="url(#clipPath2)" fill="none" width="74" rx="4" ry="4" height="30"/>
      <text x="687.25" xml:space="preserve" y="111.2866" clip-path="url(#clipPath2)" font-family="sans-serif" stroke="none">UI</text>
    </g>
    <g fill="rgb(255,204,0)" text-rendering="geometricPrecision" shape-rendering="geometricPrecision" transform="matrix(1,0,0,1,-315,21)" stroke="rgb(255,204,0)">
      <rect x="656.25" y="131.4604" clip-path="url(#clipPath2)" width="74" rx="4" ry="4" height="30" stroke="none"/>
    </g>
    <g text-rendering="geometricPrecision" stroke-miterlimit="1.45" shape-rendering="geometricPrecision" transform="matrix(1,0,0,1,-315,21)" stroke-linecap="butt">
      <rect x="656.25" y="131.4604" clip-path="url(#clipPath2)" fill="none" width="74" rx="4" ry="4" height="30"/>
      <text x="679.5742" xml:space="preserve" y="151.1743" clip-path="url(#clipPath2)" font-family="sans-serif" stroke="none">Base</text>
      <path fill="none" d="M476.5 169.5371 L476.5 220.8128" clip-path="url(#clipPath2)"/>
      <path d="M476.5 228.8128 L481.5 216.8128 L476.5 219.8128 L471.5 216.8128 Z" clip-path="url(#clipPath2)" stroke="none"/>
      <path fill="none" d="M400.5 169.5562 L400.5 254.6409 L400.5 254.6409 L400.5 371.082" clip-path="url(#clipPath2)"/>
      <path d="M400.5 379.082 L405.5 367.082 L400.5 370.082 L395.5 367.082 Z" clip-path="url(#clipPath2)" stroke="none"/>
      <path fill="none" d="M743 169.5996 L743 371.1229" clip-path="url(#clipPath2)"/>
      <path d="M743 379.1229 L748 367.1229 L743 370.1229 L738 367.1229 Z" clip-path="url(#clipPath2)" stroke="none"/>
      <path fill="none" d="M583 61.5959 L583 70.5879" clip-path="url(#clipPath2)"/>
      <path d="M583 78.5879 L588 66.5879 L583 69.5879 L578 66.5879 Z" clip-path="url(#clipPath2)" stroke="none"/>
      <path fill="none" d="M773.5 61.5882 L773.5 83.5926" clip-path="url(#clipPath2)"/>
      <path d="M773.5 91.5926 L778.5 79.5926 L773.5 82.5926 L768.5 79.5926 Z" clip-path="url(#clipPath2)" stroke="none"/>
    </g>
  </g>
</svg>
