<?xml version="1.0" encoding="UTF-8"?><svg xmlns="http://www.w3.org/2000/svg" xmlns:xlink="http://www.w3.org/1999/xlink" fill-opacity="1" color-rendering="auto" color-interpolation="auto" text-rendering="auto" stroke="black" stroke-linecap="square" width="669" stroke-miterlimit="10" shape-rendering="auto" stroke-opacity="1" fill="black" stroke-dasharray="none" font-weight="normal" stroke-width="1" height="445" font-family="'Dialog'" font-style="normal" stroke-linejoin="miter" font-size="12px" stroke-dashoffset="0" image-rendering="auto">
  <!--Generated by ySVG 2.5-->
  <defs id="genericDefs"/>
  <g>
    <defs id="defs1">
      <clipPath clipPathUnits="userSpaceOnUse" id="clipPath1">
        <path d="M0 0 L669 0 L669 445 L0 445 L0 0 Z"/>
      </clipPath>
      <clipPath clipPathUnits="userSpaceOnUse" id="clipPath2">
        <path d="M330 117 L999 117 L999 562 L330 562 L330 117 Z"/>
      </clipPath>
    </defs>
    <g fill="white" text-rendering="geometricPrecision" shape-rendering="geometricPrecision" transform="translate(-330,-117)" stroke="white">
      <rect x="330" width="669" height="445" y="117" clip-path="url(#clipPath2)" stroke="none"/>
    </g>
    <g fill="rgb(204,255,255)" text-rendering="geometricPrecision" shape-rendering="geometricPrecision" transform="matrix(1,0,0,1,-330,-117)" stroke="rgb(204,255,255)">
      <rect x="597" y="456" clip-path="url(#clipPath2)" width="224" rx="4" ry="4" height="91" stroke="none"/>
    </g>
    <g text-rendering="geometricPrecision" stroke-miterlimit="1.45" shape-rendering="geometricPrecision" transform="matrix(1,0,0,1,-330,-117)" stroke-linecap="butt">
      <rect x="597" y="456" clip-path="url(#clipPath2)" fill="none" width="224" rx="4" ry="4" height="91"/>
      <text x="603" xml:space="preserve" y="506.2139" clip-path="url(#clipPath2)" font-family="sans-serif" stroke="none">Interfaces</text>
    </g>
    <g fill="rgb(204,255,255)" text-rendering="geometricPrecision" shape-rendering="geometricPrecision" transform="matrix(1,0,0,1,-330,-117)" stroke="rgb(204,255,255)">
      <rect x="529" y="348" clip-path="url(#clipPath2)" width="292" rx="4" ry="4" height="91" stroke="none"/>
    </g>
    <g text-rendering="geometricPrecision" stroke-miterlimit="1.45" shape-rendering="geometricPrecision" transform="matrix(1,0,0,1,-330,-117)" stroke-linecap="butt">
      <rect x="529" y="348" clip-path="url(#clipPath2)" fill="none" width="292" rx="4" ry="4" height="91"/>
      <text x="535" xml:space="preserve" y="398.2139" clip-path="url(#clipPath2)" font-family="sans-serif" stroke="none">Modules</text>
    </g>
    <g fill="rgb(204,255,255)" text-rendering="geometricPrecision" shape-rendering="geometricPrecision" transform="matrix(1,0,0,1,-330,-117)" stroke="rgb(204,255,255)">
      <rect x="345" y="240" clip-path="url(#clipPath2)" width="639" rx="4" ry="4" height="91" stroke="none"/>
    </g>
    <g text-rendering="geometricPrecision" stroke-miterlimit="1.45" shape-rendering="geometricPrecision" transform="matrix(1,0,0,1,-330,-117)" stroke-linecap="butt">
      <rect x="345" y="240" clip-path="url(#clipPath2)" fill="none" width="639" rx="4" ry="4" height="91"/>
      <text x="351" xml:space="preserve" y="290.2139" clip-path="url(#clipPath2)" font-family="sans-serif" stroke="none">Plugins</text>
    </g>
    <g fill="rgb(255,204,0)" text-rendering="geometricPrecision" shape-rendering="geometricPrecision" transform="matrix(1,0,0,1,-330,-117)" stroke="rgb(255,204,0)">
      <rect x="726" y="504" clip-path="url(#clipPath2)" width="74" rx="4" ry="4" height="30" stroke="none"/>
    </g>
    <g text-rendering="geometricPrecision" stroke-miterlimit="1.45" shape-rendering="geometricPrecision" transform="matrix(1,0,0,1,-330,-117)" stroke-linecap="butt">
      <rect x="726" y="504" clip-path="url(#clipPath2)" fill="none" width="74" rx="4" ry="4" height="30"/>
      <text x="734.3301" xml:space="preserve" y="523.7139" clip-path="url(#clipPath2)" font-family="sans-serif" stroke="none">Filesystem</text>
    </g>
    <g fill="rgb(255,204,0)" text-rendering="geometricPrecision" shape-rendering="geometricPrecision" transform="matrix(1,0,0,1,-330,-117)" stroke="rgb(255,204,0)">
      <rect x="653" y="361" clip-path="url(#clipPath2)" width="74" rx="4" ry="4" height="30" stroke="none"/>
    </g>
    <g text-rendering="geometricPrecision" stroke-miterlimit="1.45" shape-rendering="geometricPrecision" transform="matrix(1,0,0,1,-330,-117)" stroke-linecap="butt">
      <rect x="653" y="361" clip-path="url(#clipPath2)" fill="none" width="74" rx="4" ry="4" height="30"/>
      <text x="662.9824" xml:space="preserve" y="380.7139" clip-path="url(#clipPath2)" font-family="sans-serif" stroke="none">Threading</text>
    </g>
    <g fill="rgb(255,204,0)" text-rendering="geometricPrecision" shape-rendering="geometricPrecision" transform="matrix(1,0,0,1,-330,-117)" stroke="rgb(255,204,0)">
      <rect x="735" y="469" clip-path="url(#clipPath2)" width="65" rx="4" ry="4" height="30" stroke="none"/>
    </g>
    <g text-rendering="geometricPrecision" stroke-miterlimit="1.45" shape-rendering="geometricPrecision" transform="matrix(1,0,0,1,-330,-117)" stroke-linecap="butt">
      <rect x="735" y="469" clip-path="url(#clipPath2)" fill="none" width="65" rx="4" ry="4" height="30"/>
      <text x="746.1572" xml:space="preserve" y="488.7139" clip-path="url(#clipPath2)" font-family="sans-serif" stroke="none">Sockets</text>
    </g>
    <g fill="rgb(255,204,0)" text-rendering="geometricPrecision" shape-rendering="geometricPrecision" transform="matrix(1,0,0,1,-330,-117)" stroke="rgb(255,204,0)">
      <rect x="738" y="361" clip-path="url(#clipPath2)" width="56" rx="4" ry="4" height="30" stroke="none"/>
    </g>
    <g text-rendering="geometricPrecision" stroke-miterlimit="1.45" shape-rendering="geometricPrecision" transform="matrix(1,0,0,1,-330,-117)" stroke-linecap="butt">
      <rect x="738" y="361" clip-path="url(#clipPath2)" fill="none" width="56" rx="4" ry="4" height="30"/>
      <text x="746.3213" xml:space="preserve" y="380.7139" clip-path="url(#clipPath2)" font-family="sans-serif" stroke="none">Plugins</text>
    </g>
    <g fill="rgb(255,204,0)" text-rendering="geometricPrecision" shape-rendering="geometricPrecision" transform="matrix(1,0,0,1,-330,-117)" stroke="rgb(255,204,0)">
      <rect x="653" y="396" clip-path="url(#clipPath2)" width="113" rx="4" ry="4" height="30" stroke="none"/>
    </g>
    <g text-rendering="geometricPrecision" stroke-miterlimit="1.45" shape-rendering="geometricPrecision" transform="matrix(1,0,0,1,-330,-117)" stroke-linecap="butt">
      <rect x="653" y="396" clip-path="url(#clipPath2)" fill="none" width="113" rx="4" ry="4" height="30"/>
      <text x="659.4668" xml:space="preserve" y="415.7139" clip-path="url(#clipPath2)" font-family="sans-serif" stroke="none">UniqueComponent</text>
    </g>
    <g fill="lime" text-rendering="geometricPrecision" shape-rendering="geometricPrecision" transform="matrix(1,0,0,1,-330,-117)" stroke="lime">
      <rect x="345" y="456" clip-path="url(#clipPath2)" width="235" rx="4" ry="4" height="91" stroke="none"/>
    </g>
    <g text-rendering="geometricPrecision" stroke-miterlimit="1.45" shape-rendering="geometricPrecision" transform="matrix(1,0,0,1,-330,-117)" stroke-linecap="butt">
      <rect x="345" y="456" clip-path="url(#clipPath2)" fill="none" width="235" rx="4" ry="4" height="91"/>
      <text x="352.6699" xml:space="preserve" y="491.5127" clip-path="url(#clipPath2)" font-family="sans-serif" stroke="none">Generic</text>
      <text x="351" xml:space="preserve" y="506.2139" clip-path="url(#clipPath2)" font-family="sans-serif" stroke="none">(header-</text>
      <text x="360.6738" xml:space="preserve" y="520.915" clip-path="url(#clipPath2)" font-family="sans-serif" stroke="none">only)</text>
    </g>
    <g fill="rgb(204,255,255)" text-rendering="geometricPrecision" shape-rendering="geometricPrecision" transform="matrix(1,0,0,1,-330,-117)" stroke="rgb(204,255,255)">
      <rect x="345" y="348" clip-path="url(#clipPath2)" width="171" rx="4" ry="4" height="91" stroke="none"/>
    </g>
    <g text-rendering="geometricPrecision" stroke-miterlimit="1.45" shape-rendering="geometricPrecision" transform="matrix(1,0,0,1,-330,-117)" stroke-linecap="butt">
      <rect x="345" y="348" clip-path="url(#clipPath2)" fill="none" width="171" rx="4" ry="4" height="91"/>
      <text x="351" xml:space="preserve" y="398.2139" clip-path="url(#clipPath2)" font-family="sans-serif" stroke="none">Meta</text>
    </g>
    <g fill="rgb(255,153,0)" text-rendering="geometricPrecision" shape-rendering="geometricPrecision" transform="matrix(1,0,0,1,-330,-117)" stroke="rgb(255,153,0)">
      <rect x="835" y="348" clip-path="url(#clipPath2)" width="149" rx="4" ry="4" height="91" stroke="none"/>
    </g>
    <g text-rendering="geometricPrecision" stroke-miterlimit="1.45" shape-rendering="geometricPrecision" transform="matrix(1,0,0,1,-330,-117)" stroke-linecap="butt">
      <rect x="835" y="348" clip-path="url(#clipPath2)" fill="none" width="149" rx="4" ry="4" height="91"/>
      <text x="841" xml:space="preserve" y="398.2139" clip-path="url(#clipPath2)" font-family="sans-serif" stroke="none">3rd Party Libraries</text>
    </g>
    <g fill="rgb(204,255,255)" text-rendering="geometricPrecision" shape-rendering="geometricPrecision" transform="matrix(1,0,0,1,-330,-117)" stroke="rgb(204,255,255)">
      <rect x="345" y="132" clip-path="url(#clipPath2)" width="639" rx="4" ry="4" height="91" stroke="none"/>
    </g>
    <g text-rendering="geometricPrecision" stroke-miterlimit="1.45" shape-rendering="geometricPrecision" transform="matrix(1,0,0,1,-330,-117)" stroke-linecap="butt">
      <rect x="345" y="132" clip-path="url(#clipPath2)" fill="none" width="639" rx="4" ry="4" height="91"/>
      <text x="351" xml:space="preserve" y="182.2139" clip-path="url(#clipPath2)" font-family="sans-serif" stroke="none">Tool-Plugins</text>
    </g>
    <g fill="rgb(255,204,0)" text-rendering="geometricPrecision" shape-rendering="geometricPrecision" transform="matrix(1,0,0,1,-330,-117)" stroke="rgb(255,204,0)">
      <rect x="413" y="361" clip-path="url(#clipPath2)" width="74" rx="4" ry="4" height="30" stroke="none"/>
    </g>
    <g text-rendering="geometricPrecision" stroke-miterlimit="1.45" shape-rendering="geometricPrecision" transform="matrix(1,0,0,1,-330,-117)" stroke-linecap="butt">
      <rect x="413" y="361" clip-path="url(#clipPath2)" fill="none" width="74" rx="4" ry="4" height="30"/>
      <text x="424.3154" xml:space="preserve" y="380.7139" clip-path="url(#clipPath2)" font-family="sans-serif" stroke="none">KeyValue</text>
    </g>
    <g fill="rgb(255,204,0)" text-rendering="geometricPrecision" shape-rendering="geometricPrecision" transform="matrix(1,0,0,1,-330,-117)" stroke="rgb(255,204,0)">
      <rect x="413" y="396" clip-path="url(#clipPath2)" width="74" rx="4" ry="4" height="30" stroke="none"/>
    </g>
    <g text-rendering="geometricPrecision" stroke-miterlimit="1.45" shape-rendering="geometricPrecision" transform="matrix(1,0,0,1,-330,-117)" stroke-linecap="butt">
      <rect x="413" y="396" clip-path="url(#clipPath2)" fill="none" width="74" rx="4" ry="4" height="30"/>
      <text x="426.9902" xml:space="preserve" y="415.7139" clip-path="url(#clipPath2)" font-family="sans-serif" stroke="none">Serialize</text>
    </g>
    <g fill="rgb(255,204,0)" text-rendering="geometricPrecision" shape-rendering="geometricPrecision" transform="matrix(1,0,0,1,-330,-117)" stroke="rgb(255,204,0)">
      <rect x="414" y="469" clip-path="url(#clipPath2)" width="74" rx="4" ry="4" height="30" stroke="none"/>
    </g>
    <g text-rendering="geometricPrecision" stroke-miterlimit="1.45" shape-rendering="geometricPrecision" transform="matrix(1,0,0,1,-330,-117)" stroke-linecap="butt">
      <rect x="414" y="469" clip-path="url(#clipPath2)" fill="none" width="74" rx="4" ry="4" height="30"/>
      <text x="421.9844" xml:space="preserve" y="488.7139" clip-path="url(#clipPath2)" font-family="sans-serif" stroke="none">Containers</text>
    </g>
    <g fill="rgb(255,153,0)" text-rendering="geometricPrecision" shape-rendering="geometricPrecision" transform="matrix(1,0,0,1,-330,-117)" stroke="rgb(255,153,0)">
      <rect x="835" y="456" clip-path="url(#clipPath2)" width="149" rx="4" ry="4" height="91" stroke="none"/>
    </g>
    <g text-rendering="geometricPrecision" stroke-miterlimit="1.45" shape-rendering="geometricPrecision" transform="matrix(1,0,0,1,-330,-117)" stroke-linecap="butt">
      <rect x="835" y="456" clip-path="url(#clipPath2)" fill="none" width="149" rx="4" ry="4" height="91"/>
      <text x="841" xml:space="preserve" y="506.2139" clip-path="url(#clipPath2)" font-family="sans-serif" stroke="none">OS Libraries</text>
    </g>
    <g fill="rgb(255,204,0)" text-rendering="geometricPrecision" shape-rendering="geometricPrecision" transform="matrix(1,0,0,1,-330,-117)" stroke="rgb(255,204,0)">
      <rect x="898" y="288" clip-path="url(#clipPath2)" width="74" rx="4" ry="4" height="30" stroke="none"/>
    </g>
    <g text-rendering="geometricPrecision" stroke-miterlimit="1.45" shape-rendering="geometricPrecision" transform="matrix(1,0,0,1,-330,-117)" stroke-linecap="butt">
      <rect x="898" y="288" clip-path="url(#clipPath2)" fill="none" width="74" rx="4" ry="4" height="30"/>
      <text x="913.3232" xml:space="preserve" y="300.3633" clip-path="url(#clipPath2)" font-family="sans-serif" stroke="none">Tooling-</text>
      <text x="904.9971" xml:space="preserve" y="315.0645" clip-path="url(#clipPath2)" font-family="sans-serif" stroke="none">Framework</text>
      <path fill="none" d="M663.2439 439.0216 L663.2439 448.0009" clip-path="url(#clipPath2)"/>
      <path d="M663.2439 456.0009 L668.2439 444.0009 L663.2439 447.0009 L658.2439 444.0009 Z" clip-path="url(#clipPath2)" stroke="none"/>
      <path fill="none" d="M664.5 331.0229 L664.5 340.0339" clip-path="url(#clipPath2)"/>
      <path d="M664.5 348.0339 L669.5 336.0339 L664.5 339.0339 L659.5 336.0339 Z" clip-path="url(#clipPath2)" stroke="none"/>
      <path fill="none" d="M596.9737 501.5 L588.0003 501.5" clip-path="url(#clipPath2)"/>
      <path d="M580.0003 501.5 L592.0003 506.5 L589.0003 501.5 L592.0003 496.5 Z" clip-path="url(#clipPath2)" stroke="none"/>
      <path fill="none" d="M557.7483 438.9834 L557.7483 447.9689" clip-path="url(#clipPath2)"/>
      <path d="M557.7483 455.9689 L562.7483 443.9689 L557.7483 446.9689 L552.7483 443.9689 Z" clip-path="url(#clipPath2)" stroke="none"/>
      <path fill="none" d="M430.5 330.9702 L430.5 339.9766" clip-path="url(#clipPath2)"/>
      <path d="M430.5 347.9766 L435.5 335.9766 L430.5 338.9766 L425.5 335.9766 Z" clip-path="url(#clipPath2)" stroke="none"/>
      <path fill="none" d="M412.3205 439.0039 L412.3205 448.0173" clip-path="url(#clipPath2)"/>
      <path d="M412.3205 456.0173 L417.3205 444.0173 L412.3205 447.0173 L407.3205 444.0173 Z" clip-path="url(#clipPath2)" stroke="none"/>
      <path fill="none" d="M909.5 330.9834 L909.5 339.9862" clip-path="url(#clipPath2)"/>
      <path d="M909.5 347.9862 L914.5 335.9862 L909.5 338.9862 L904.5 335.9862 Z" clip-path="url(#clipPath2)" stroke="none"/>
      <path fill="none" d="M664.5 222.9834 L664.5 231.9862" clip-path="url(#clipPath2)"/>
      <path d="M664.5 239.9862 L669.5 227.9862 L664.5 230.9862 L659.5 227.9862 Z" clip-path="url(#clipPath2)" stroke="none"/>
      <path fill="none" d="M821.047 501.5 L826.9974 501.5" clip-path="url(#clipPath2)"/>
      <path d="M834.9974 501.5 L822.9974 496.5 L825.9974 501.5 L822.9974 506.5 Z" clip-path="url(#clipPath2)" stroke="none"/>
      <path fill="none" d="M935 222.9949 L935 280.0381" clip-path="url(#clipPath2)"/>
      <path d="M935 288.0381 L940 276.0381 L935 279.0381 L930 276.0381 Z" clip-path="url(#clipPath2)" stroke="none"/>
      <path fill="none" d="M935 318.0137 L935 340.0117" clip-path="url(#clipPath2)"/>
      <path d="M935 348.0117 L940 336.0117 L935 339.0117 L930 336.0117 Z" clip-path="url(#clipPath2)" stroke="none"/>
    </g>
  </g>
</svg>
