<?xml version="1.0" encoding="UTF-8"?><svg xmlns="http://www.w3.org/2000/svg" xmlns:xlink="http://www.w3.org/1999/xlink" fill-opacity="1" color-rendering="auto" color-interpolation="auto" text-rendering="auto" stroke="black" stroke-linecap="square" width="346" stroke-miterlimit="10" shape-rendering="auto" stroke-opacity="1" fill="black" stroke-dasharray="none" font-weight="normal" stroke-width="1" height="553" font-family="'Dialog'" font-style="normal" stroke-linejoin="miter" font-size="12px" stroke-dashoffset="0" image-rendering="auto">
  <!--Generated by ySVG 2.5-->
  <defs id="genericDefs"/>
  <g>
    <defs id="defs1">
      <clipPath clipPathUnits="userSpaceOnUse" id="clipPath1">
        <path d="M0 0 L346 0 L346 553 L0 553 L0 0 Z"/>
      </clipPath>
      <clipPath clipPathUnits="userSpaceOnUse" id="clipPath2">
        <path d="M330 9 L676 9 L676 562 L330 562 L330 9 Z"/>
      </clipPath>
    </defs>
    <g fill="white" text-rendering="geometricPrecision" shape-rendering="geometricPrecision" transform="translate(-330,-9)" stroke="white">
      <rect x="330" width="346" height="553" y="9" clip-path="url(#clipPath2)" stroke="none"/>
    </g>
    <g fill="rgb(204,255,255)" text-rendering="geometricPrecision" shape-rendering="geometricPrecision" transform="matrix(1,0,0,1,-330,-9)" stroke="rgb(204,255,255)">
      <rect x="345" y="456" clip-path="url(#clipPath2)" width="316" rx="4" ry="4" height="91" stroke="none"/>
    </g>
    <g text-rendering="geometricPrecision" stroke-miterlimit="1.45" shape-rendering="geometricPrecision" transform="matrix(1,0,0,1,-330,-9)" stroke-linecap="butt">
      <rect x="345" y="456" clip-path="url(#clipPath2)" fill="none" width="316" rx="4" ry="4" height="91"/>
      <text x="351" xml:space="preserve" y="506.2139" clip-path="url(#clipPath2)" font-family="sans-serif" stroke="none">Interfaces</text>
    </g>
    <g fill="rgb(204,255,255)" text-rendering="geometricPrecision" shape-rendering="geometricPrecision" transform="matrix(1,0,0,1,-330,-9)" stroke="rgb(204,255,255)">
      <rect x="345" y="348" clip-path="url(#clipPath2)" width="316" rx="4" ry="4" height="91" stroke="none"/>
    </g>
    <g text-rendering="geometricPrecision" stroke-miterlimit="1.45" shape-rendering="geometricPrecision" transform="matrix(1,0,0,1,-330,-9)" stroke-linecap="butt">
      <rect x="345" y="348" clip-path="url(#clipPath2)" fill="none" width="316" rx="4" ry="4" height="91"/>
      <text x="351" xml:space="preserve" y="398.2139" clip-path="url(#clipPath2)" font-family="sans-serif" stroke="none">Modules</text>
    </g>
    <g fill="rgb(204,255,255)" text-rendering="geometricPrecision" shape-rendering="geometricPrecision" transform="matrix(1,0,0,1,-330,-9)" stroke="rgb(204,255,255)">
      <rect x="345" y="240" clip-path="url(#clipPath2)" width="316" rx="4" ry="4" height="91" stroke="none"/>
    </g>
    <g text-rendering="geometricPrecision" stroke-miterlimit="1.45" shape-rendering="geometricPrecision" transform="matrix(1,0,0,1,-330,-9)" stroke-linecap="butt">
      <rect x="345" y="240" clip-path="url(#clipPath2)" fill="none" width="316" rx="4" ry="4" height="91"/>
      <text x="351" xml:space="preserve" y="275.5127" clip-path="url(#clipPath2)" font-family="sans-serif" stroke="none">Engine-</text>
      <text x="356.6777" xml:space="preserve" y="290.2139" clip-path="url(#clipPath2)" font-family="sans-serif" stroke="none">Core-</text>
      <text x="352.002" xml:space="preserve" y="304.915" clip-path="url(#clipPath2)" font-family="sans-serif" stroke="none">Plugins</text>
    </g>
    <g fill="rgb(204,255,255)" text-rendering="geometricPrecision" shape-rendering="geometricPrecision" transform="matrix(1,0,0,1,-330,-9)" stroke="rgb(204,255,255)">
      <rect x="345" y="132" clip-path="url(#clipPath2)" width="316" rx="4" ry="4" height="91" stroke="none"/>
    </g>
    <g text-rendering="geometricPrecision" stroke-miterlimit="1.45" shape-rendering="geometricPrecision" transform="matrix(1,0,0,1,-330,-9)" stroke-linecap="butt">
      <rect x="345" y="132" clip-path="url(#clipPath2)" fill="none" width="316" rx="4" ry="4" height="91"/>
      <text x="352.3418" xml:space="preserve" y="167.5127" clip-path="url(#clipPath2)" font-family="sans-serif" stroke="none">Game-</text>
      <text x="354.3369" xml:space="preserve" y="182.2139" clip-path="url(#clipPath2)" font-family="sans-serif" stroke="none">Logic-</text>
      <text x="351" xml:space="preserve" y="196.915" clip-path="url(#clipPath2)" font-family="sans-serif" stroke="none">Plugins</text>
    </g>
    <g fill="rgb(204,255,255)" text-rendering="geometricPrecision" shape-rendering="geometricPrecision" transform="matrix(1,0,0,1,-330,-9)" stroke="rgb(204,255,255)">
      <rect x="345" y="24" clip-path="url(#clipPath2)" width="316" rx="4" ry="4" height="91" stroke="none"/>
    </g>
    <g text-rendering="geometricPrecision" stroke-miterlimit="1.45" shape-rendering="geometricPrecision" transform="matrix(1,0,0,1,-330,-9)" stroke-linecap="butt">
      <rect x="345" y="24" clip-path="url(#clipPath2)" fill="none" width="316" rx="4" ry="4" height="91"/>
      <text x="357.0088" xml:space="preserve" y="66.8633" clip-path="url(#clipPath2)" font-family="sans-serif" stroke="none">Tool-</text>
      <text x="351" xml:space="preserve" y="81.5645" clip-path="url(#clipPath2)" font-family="sans-serif" stroke="none">Plugins</text>
    </g>
    <g fill="rgb(255,204,0)" text-rendering="geometricPrecision" shape-rendering="geometricPrecision" transform="matrix(1,0,0,1,-330,-9)" stroke="rgb(255,204,0)">
      <rect x="420" y="469" clip-path="url(#clipPath2)" width="74" rx="4" ry="4" height="30" stroke="none"/>
    </g>
    <g text-rendering="geometricPrecision" stroke-miterlimit="1.45" shape-rendering="geometricPrecision" transform="matrix(1,0,0,1,-330,-9)" stroke-linecap="butt">
      <rect x="420" y="469" clip-path="url(#clipPath2)" fill="none" width="74" rx="4" ry="4" height="30"/>
      <text x="428.3301" xml:space="preserve" y="488.7139" clip-path="url(#clipPath2)" font-family="sans-serif" stroke="none">Filesystem</text>
    </g>
    <g fill="rgb(255,204,0)" text-rendering="geometricPrecision" shape-rendering="geometricPrecision" transform="matrix(1,0,0,1,-330,-9)" stroke="rgb(255,204,0)">
      <rect x="420" y="361" clip-path="url(#clipPath2)" width="74" rx="4" ry="4" height="30" stroke="none"/>
    </g>
    <g text-rendering="geometricPrecision" stroke-miterlimit="1.45" shape-rendering="geometricPrecision" transform="matrix(1,0,0,1,-330,-9)" stroke-linecap="butt">
      <rect x="420" y="361" clip-path="url(#clipPath2)" fill="none" width="74" rx="4" ry="4" height="30"/>
      <text x="428.3154" xml:space="preserve" y="380.7139" clip-path="url(#clipPath2)" font-family="sans-serif" stroke="none">Signal/Slot</text>
    </g>
    <g fill="rgb(255,204,0)" text-rendering="geometricPrecision" shape-rendering="geometricPrecision" transform="matrix(1,0,0,1,-330,-9)" stroke="rgb(255,204,0)">
      <rect x="422" y="253" clip-path="url(#clipPath2)" width="74" rx="4" ry="4" height="30" stroke="none"/>
    </g>
    <g text-rendering="geometricPrecision" stroke-miterlimit="1.45" shape-rendering="geometricPrecision" transform="matrix(1,0,0,1,-330,-9)" stroke-linecap="butt">
      <rect x="422" y="253" clip-path="url(#clipPath2)" fill="none" width="74" rx="4" ry="4" height="30"/>
      <text x="433.9863" xml:space="preserve" y="265.3633" clip-path="url(#clipPath2)" font-family="sans-serif" stroke="none">Madgine-</text>
      <text x="445.9951" xml:space="preserve" y="280.0645" clip-path="url(#clipPath2)" font-family="sans-serif" stroke="none">Core</text>
    </g>
    <g fill="lime" text-rendering="geometricPrecision" shape-rendering="geometricPrecision" transform="matrix(1,0,0,1,-330,-9)" stroke="lime">
      <rect x="420" y="145" clip-path="url(#clipPath2)" width="74" rx="4" ry="4" height="30" stroke="none"/>
    </g>
    <g text-rendering="geometricPrecision" stroke-miterlimit="1.45" shape-rendering="geometricPrecision" transform="matrix(1,0,0,1,-330,-9)" stroke-linecap="butt">
      <rect x="420" y="145" clip-path="url(#clipPath2)" fill="none" width="74" rx="4" ry="4" height="30"/>
      <text x="451.999" xml:space="preserve" y="164.7139" clip-path="url(#clipPath2)" font-family="sans-serif" stroke="none">...</text>
    </g>
    <g fill="rgb(255,204,0)" text-rendering="geometricPrecision" shape-rendering="geometricPrecision" transform="matrix(1,0,0,1,-330,-9)" stroke="rgb(255,204,0)">
      <rect x="420" y="36" clip-path="url(#clipPath2)" width="84" rx="4" ry="4" height="30" stroke="none"/>
    </g>
    <g text-rendering="geometricPrecision" stroke-miterlimit="1.45" shape-rendering="geometricPrecision" transform="matrix(1,0,0,1,-330,-9)" stroke-linecap="butt">
      <rect x="420" y="36" clip-path="url(#clipPath2)" fill="none" width="84" rx="4" ry="4" height="30"/>
      <text x="421.6406" xml:space="preserve" y="55.7139" clip-path="url(#clipPath2)" font-family="sans-serif" stroke="none">PluginManager</text>
    </g>
    <g fill="rgb(255,204,0)" text-rendering="geometricPrecision" shape-rendering="geometricPrecision" transform="matrix(1,0,0,1,-330,-9)" stroke="rgb(255,204,0)">
      <rect x="505" y="469" clip-path="url(#clipPath2)" width="65" rx="4" ry="4" height="30" stroke="none"/>
    </g>
    <g text-rendering="geometricPrecision" stroke-miterlimit="1.45" shape-rendering="geometricPrecision" transform="matrix(1,0,0,1,-330,-9)" stroke-linecap="butt">
      <rect x="505" y="469" clip-path="url(#clipPath2)" fill="none" width="65" rx="4" ry="4" height="30"/>
      <text x="516.1572" xml:space="preserve" y="488.7139" clip-path="url(#clipPath2)" font-family="sans-serif" stroke="none">Sockets</text>
    </g>
    <g fill="rgb(255,204,0)" text-rendering="geometricPrecision" shape-rendering="geometricPrecision" transform="matrix(1,0,0,1,-330,-9)" stroke="rgb(255,204,0)">
      <rect x="505" y="361" clip-path="url(#clipPath2)" width="56" rx="4" ry="4" height="30" stroke="none"/>
    </g>
    <g text-rendering="geometricPrecision" stroke-miterlimit="1.45" shape-rendering="geometricPrecision" transform="matrix(1,0,0,1,-330,-9)" stroke-linecap="butt">
      <rect x="505" y="361" clip-path="url(#clipPath2)" fill="none" width="56" rx="4" ry="4" height="30"/>
      <text x="513.3213" xml:space="preserve" y="380.7139" clip-path="url(#clipPath2)" font-family="sans-serif" stroke="none">Plugins</text>
    </g>
    <g fill="rgb(255,204,0)" text-rendering="geometricPrecision" shape-rendering="geometricPrecision" transform="matrix(1,0,0,1,-330,-9)" stroke="rgb(255,204,0)">
      <rect x="420" y="396" clip-path="url(#clipPath2)" width="113" rx="4" ry="4" height="30" stroke="none"/>
    </g>
    <g text-rendering="geometricPrecision" stroke-miterlimit="1.45" shape-rendering="geometricPrecision" transform="matrix(1,0,0,1,-330,-9)" stroke-linecap="butt">
      <rect x="420" y="396" clip-path="url(#clipPath2)" fill="none" width="113" rx="4" ry="4" height="30"/>
      <text x="426.4668" xml:space="preserve" y="415.7139" clip-path="url(#clipPath2)" font-family="sans-serif" stroke="none">UniqueComponent</text>
    </g>
    <g fill="lime" text-rendering="geometricPrecision" shape-rendering="geometricPrecision" transform="matrix(1,0,0,1,-330,-9)" stroke="lime">
      <rect x="508" y="253" clip-path="url(#clipPath2)" width="74" rx="4" ry="4" height="30" stroke="none"/>
    </g>
    <g text-rendering="geometricPrecision" stroke-miterlimit="1.45" shape-rendering="geometricPrecision" transform="matrix(1,0,0,1,-330,-9)" stroke-linecap="butt">
      <rect x="508" y="253" clip-path="url(#clipPath2)" fill="none" width="74" rx="4" ry="4" height="30"/>
      <text x="524.3281" xml:space="preserve" y="265.3633" clip-path="url(#clipPath2)" font-family="sans-serif" stroke="none">Custom</text>
      <text x="531.9951" xml:space="preserve" y="280.0645" clip-path="url(#clipPath2)" font-family="sans-serif" stroke="none">Core</text>
    </g>
    <g fill="rgb(255,204,0)" text-rendering="geometricPrecision" shape-rendering="geometricPrecision" transform="matrix(1,0,0,1,-330,-9)" stroke="rgb(255,204,0)">
      <rect x="422" y="288" clip-path="url(#clipPath2)" width="74" rx="4" ry="4" height="30" stroke="none"/>
    </g>
    <g text-rendering="geometricPrecision" stroke-miterlimit="1.45" shape-rendering="geometricPrecision" transform="matrix(1,0,0,1,-330,-9)" stroke-linecap="butt">
      <rect x="422" y="288" clip-path="url(#clipPath2)" fill="none" width="74" rx="4" ry="4" height="30"/>
      <text x="433.9863" xml:space="preserve" y="307.7139" clip-path="url(#clipPath2)" font-family="sans-serif" stroke="none">Renderer</text>
    </g>
    <g fill="rgb(255,204,0)" text-rendering="geometricPrecision" shape-rendering="geometricPrecision" transform="matrix(1,0,0,1,-330,-9)" stroke="rgb(255,204,0)">
      <rect x="508" y="288" clip-path="url(#clipPath2)" width="74" rx="4" ry="4" height="30" stroke="none"/>
    </g>
    <g text-rendering="geometricPrecision" stroke-miterlimit="1.45" shape-rendering="geometricPrecision" transform="matrix(1,0,0,1,-330,-9)" stroke-linecap="butt">
      <rect x="508" y="288" clip-path="url(#clipPath2)" fill="none" width="74" rx="4" ry="4" height="30"/>
      <text x="531.6553" xml:space="preserve" y="307.7139" clip-path="url(#clipPath2)" font-family="sans-serif" stroke="none">Input</text>
    </g>
    <g fill="lime" text-rendering="geometricPrecision" shape-rendering="geometricPrecision" transform="matrix(1,0,0,1,-330,-9)" stroke="lime">
      <rect x="510" y="36" clip-path="url(#clipPath2)" width="74" rx="4" ry="4" height="30" stroke="none"/>
    </g>
    <g text-rendering="geometricPrecision" stroke-miterlimit="1.45" shape-rendering="geometricPrecision" transform="matrix(1,0,0,1,-330,-9)" stroke-linecap="butt">
      <rect x="510" y="36" clip-path="url(#clipPath2)" fill="none" width="74" rx="4" ry="4" height="30"/>
      <text x="541.999" xml:space="preserve" y="55.7139" clip-path="url(#clipPath2)" font-family="sans-serif" stroke="none">...</text>
    </g>
  </g>
</svg>
