<?xml version="1.0" encoding="UTF-8"?><svg xmlns="http://www.w3.org/2000/svg" xmlns:xlink="http://www.w3.org/1999/xlink" fill-opacity="1" color-rendering="auto" color-interpolation="auto" text-rendering="auto" stroke="black" stroke-linecap="square" width="374" stroke-miterlimit="10" shape-rendering="auto" stroke-opacity="1" fill="black" stroke-dasharray="none" font-weight="normal" stroke-width="1" height="70" font-family="'Dialog'" font-style="normal" stroke-linejoin="miter" font-size="12px" stroke-dashoffset="0" image-rendering="auto">
  <!--Generated by ySVG 2.5-->
  <defs id="genericDefs"/>
  <g>
    <defs id="defs1">
      <clipPath clipPathUnits="userSpaceOnUse" id="clipPath1">
        <path d="M0 0 L374 0 L374 70 L0 70 L0 0 Z"/>
      </clipPath>
      <clipPath clipPathUnits="userSpaceOnUse" id="clipPath2">
        <path d="M320 192 L694 192 L694 262 L320 262 L320 192 Z"/>
      </clipPath>
    </defs>
    <g fill="white" text-rendering="geometricPrecision" shape-rendering="geometricPrecision" transform="translate(-320,-192)" stroke="white">
      <rect x="320" width="374" height="70" y="192" clip-path="url(#clipPath2)" stroke="none"/>
    </g>
    <g fill="rgb(255,204,0)" text-rendering="geometricPrecision" shape-rendering="geometricPrecision" transform="matrix(1,0,0,1,-320,-192)" stroke="rgb(255,204,0)">
      <rect x="335" y="215" clip-path="url(#clipPath2)" width="70" rx="4" ry="4" height="30" stroke="none"/>
    </g>
    <g text-rendering="geometricPrecision" stroke-miterlimit="1.45" shape-rendering="geometricPrecision" transform="matrix(1,0,0,1,-320,-192)" stroke-linecap="butt">
      <rect x="335" y="215" clip-path="url(#clipPath2)" fill="none" width="70" rx="4" ry="4" height="30"/>
      <text x="357.332" xml:space="preserve" y="227.3633" clip-path="url(#clipPath2)" font-family="sans-serif" stroke="none">User</text>
      <text x="355.9902" xml:space="preserve" y="242.0645" clip-path="url(#clipPath2)" font-family="sans-serif" stroke="none">State</text>
    </g>
    <g fill="rgb(255,204,0)" text-rendering="geometricPrecision" shape-rendering="geometricPrecision" transform="matrix(1,0,0,1,-320,-192)" stroke="rgb(255,204,0)">
      <rect x="472" y="215" clip-path="url(#clipPath2)" width="70" rx="4" ry="4" height="30" stroke="none"/>
    </g>
    <g text-rendering="geometricPrecision" stroke-miterlimit="1.45" shape-rendering="geometricPrecision" transform="matrix(1,0,0,1,-320,-192)" stroke-linecap="butt">
      <rect x="472" y="215" clip-path="url(#clipPath2)" fill="none" width="70" rx="4" ry="4" height="30"/>
      <text x="484.6582" xml:space="preserve" y="227.3633" clip-path="url(#clipPath2)" font-family="sans-serif" stroke="none">Physical</text>
      <text x="492.9902" xml:space="preserve" y="242.0645" clip-path="url(#clipPath2)" font-family="sans-serif" stroke="none">State</text>
    </g>
    <g fill="rgb(255,204,0)" text-rendering="geometricPrecision" shape-rendering="geometricPrecision" transform="matrix(1,0,0,1,-320,-192)" stroke="rgb(255,204,0)">
      <rect x="609" y="215" clip-path="url(#clipPath2)" width="70" rx="4" ry="4" height="30" stroke="none"/>
    </g>
    <g text-rendering="geometricPrecision" stroke-miterlimit="1.45" shape-rendering="geometricPrecision" transform="matrix(1,0,0,1,-320,-192)" stroke-linecap="butt">
      <rect x="609" y="215" clip-path="url(#clipPath2)" fill="none" width="70" rx="4" ry="4" height="30"/>
      <text x="622.9912" xml:space="preserve" y="227.3633" clip-path="url(#clipPath2)" font-family="sans-serif" stroke="none">Remote</text>
      <text x="629.9902" xml:space="preserve" y="242.0645" clip-path="url(#clipPath2)" font-family="sans-serif" stroke="none">State</text>
      <path fill="none" d="M405.0193 230 L463.9939 230" clip-path="url(#clipPath2)"/>
      <path d="M471.9939 230 L459.9939 225 L462.9939 230 L459.9939 235 Z" clip-path="url(#clipPath2)" stroke="none"/>
      <path fill="none" d="M471.9946 230 L412.9828 230" clip-path="url(#clipPath2)"/>
      <path d="M404.9828 230 L416.9828 235 L413.9828 230 L416.9828 225 Z" clip-path="url(#clipPath2)" stroke="none"/>
      <text x="422.4985" xml:space="preserve" y="222.4086" clip-path="url(#clipPath2)" font-family="sans-serif" stroke="none">active</text>
      <path fill="none" d="M542.0193 230 L600.9939 230" clip-path="url(#clipPath2)"/>
      <path d="M608.9939 230 L596.9939 225 L599.9939 230 L596.9939 235 Z" clip-path="url(#clipPath2)" stroke="none"/>
      <path fill="none" d="M608.9939 230 L549.9976 230" clip-path="url(#clipPath2)"/>
      <path d="M541.9976 230 L553.9976 235 L550.9976 230 L553.9976 225 Z" clip-path="url(#clipPath2)" stroke="none"/>
      <text x="555.5062" xml:space="preserve" y="221.0979" clip-path="url(#clipPath2)" font-family="sans-serif" stroke="none">synced</text>
    </g>
  </g>
</svg>
