<?xml version="1.0" encoding="UTF-8"?><svg xmlns="http://www.w3.org/2000/svg" xmlns:xlink="http://www.w3.org/1999/xlink" fill-opacity="1" color-rendering="auto" color-interpolation="auto" text-rendering="auto" stroke="black" stroke-linecap="square" width="419" stroke-miterlimit="10" shape-rendering="auto" stroke-opacity="1" fill="black" stroke-dasharray="none" font-weight="normal" stroke-width="1" height="215" font-family="'Dialog'" font-style="normal" stroke-linejoin="miter" font-size="12px" stroke-dashoffset="0" image-rendering="auto">
  <!--Generated by ySVG 2.6-->
  <defs id="genericDefs"/>
  <g>
    <defs id="defs1">
      <clipPath clipPathUnits="userSpaceOnUse" id="clipPath1">
        <path d="M0 0 L419 0 L419 215 L0 215 L0 0 Z"/>
      </clipPath>
      <clipPath clipPathUnits="userSpaceOnUse" id="clipPath2">
        <path d="M-2 104 L417 104 L417 319 L-2 319 L-2 104 Z"/>
      </clipPath>
    </defs>
    <g fill="white" text-rendering="geometricPrecision" shape-rendering="geometricPrecision" transform="translate(2,-104)" stroke="white">
      <rect x="-2" width="419" height="215" y="104" clip-path="url(#clipPath2)" stroke="none"/>
    </g>
    <g fill="rgb(204,255,204)" text-rendering="geometricPrecision" shape-rendering="geometricPrecision" transform="matrix(1,0,0,1,2,-104)" stroke="rgb(204,255,204)">
      <rect x="13" y="120" clip-path="url(#clipPath2)" width="245" rx="4" ry="4" height="184" stroke="none"/>
    </g>
    <g text-rendering="geometricPrecision" stroke-miterlimit="1.45" shape-rendering="geometricPrecision" transform="matrix(1,0,0,1,2,-104)" stroke-linecap="butt">
      <rect x="13" y="120" clip-path="url(#clipPath2)" fill="none" width="245" rx="4" ry="4" height="184"/>
      <text x="97.0508" xml:space="preserve" y="142.5346" clip-path="url(#clipPath2)" font-family="sans-serif" stroke="none">WorkGroup 1</text>
    </g>
    <g fill="rgb(255,204,0)" text-rendering="geometricPrecision" shape-rendering="geometricPrecision" transform="matrix(1,0,0,1,2,-104)" stroke="rgb(255,204,0)">
      <rect x="28" y="170" clip-path="url(#clipPath2)" width="100" rx="4" ry="4" height="119" stroke="none"/>
    </g>
    <g text-rendering="geometricPrecision" stroke-miterlimit="1.45" shape-rendering="geometricPrecision" transform="matrix(1,0,0,1,2,-104)" stroke-linecap="butt">
      <rect x="28" y="170" clip-path="url(#clipPath2)" fill="none" width="100" rx="4" ry="4" height="119"/>
      <text x="39.8408" xml:space="preserve" y="189.6525" clip-path="url(#clipPath2)" font-family="sans-serif" stroke="none">TaskQueue 1</text>
    </g>
    <g fill="rgb(255,153,0)" text-rendering="geometricPrecision" shape-rendering="geometricPrecision" transform="matrix(1,0,0,1,2,-104)" stroke="rgb(255,153,0)">
      <rect x="42.6364" y="207.6768" clip-path="url(#clipPath2)" width="72" rx="4" ry="4" height="30" stroke="none"/>
    </g>
    <g text-rendering="geometricPrecision" stroke-miterlimit="1.45" shape-rendering="geometricPrecision" transform="matrix(1,0,0,1,2,-104)" stroke-linecap="butt">
      <rect x="42.6364" y="207.6768" clip-path="url(#clipPath2)" fill="none" width="72" rx="4" ry="4" height="30"/>
      <text x="52.5387" xml:space="preserve" y="227.2119" clip-path="url(#clipPath2)" font-family="sans-serif" stroke="none">Thread 1</text>
    </g>
    <g fill="rgb(255,153,0)" text-rendering="geometricPrecision" shape-rendering="geometricPrecision" transform="matrix(1,0,0,1,2,-104)" stroke="rgb(255,153,0)">
      <rect x="42.6364" y="249.5" clip-path="url(#clipPath2)" width="72" rx="4" ry="4" height="30" stroke="none"/>
    </g>
    <g text-rendering="geometricPrecision" stroke-miterlimit="1.45" shape-rendering="geometricPrecision" transform="matrix(1,0,0,1,2,-104)" stroke-linecap="butt">
      <rect x="42.6364" y="249.5" clip-path="url(#clipPath2)" fill="none" width="72" rx="4" ry="4" height="30"/>
      <text x="52.5387" xml:space="preserve" y="269.0352" clip-path="url(#clipPath2)" font-family="sans-serif" stroke="none">Thread 2</text>
    </g>
    <g fill="rgb(255,204,0)" text-rendering="geometricPrecision" shape-rendering="geometricPrecision" transform="matrix(1,0,0,1,2,-104)" stroke="rgb(255,204,0)">
      <rect x="143.3636" y="170" clip-path="url(#clipPath2)" width="100" rx="4" ry="4" height="119" stroke="none"/>
    </g>
    <g text-rendering="geometricPrecision" stroke-miterlimit="1.45" shape-rendering="geometricPrecision" transform="matrix(1,0,0,1,2,-104)" stroke-linecap="butt">
      <rect x="143.3636" y="170" clip-path="url(#clipPath2)" fill="none" width="100" rx="4" ry="4" height="119"/>
      <text x="155.2045" xml:space="preserve" y="189.6525" clip-path="url(#clipPath2)" font-family="sans-serif" stroke="none">TaskQueue 2</text>
    </g>
    <g fill="rgb(255,153,0)" text-rendering="geometricPrecision" shape-rendering="geometricPrecision" transform="matrix(1,0,0,1,2,-104)" stroke="rgb(255,153,0)">
      <rect x="158" y="207.6768" clip-path="url(#clipPath2)" width="72" rx="4" ry="4" height="30" stroke="none"/>
    </g>
    <g text-rendering="geometricPrecision" stroke-miterlimit="1.45" shape-rendering="geometricPrecision" transform="matrix(1,0,0,1,2,-104)" stroke-linecap="butt">
      <rect x="158" y="207.6768" clip-path="url(#clipPath2)" fill="none" width="72" rx="4" ry="4" height="30"/>
      <text x="167.9023" xml:space="preserve" y="227.2119" clip-path="url(#clipPath2)" font-family="sans-serif" stroke="none">Thread 1</text>
    </g>
    <g fill="rgb(204,255,204)" text-rendering="geometricPrecision" shape-rendering="geometricPrecision" transform="matrix(1,0,0,1,2,-104)" stroke="rgb(204,255,204)">
      <rect x="272" y="119.5" clip-path="url(#clipPath2)" width="130" rx="4" ry="4" height="184" stroke="none"/>
    </g>
    <g text-rendering="geometricPrecision" stroke-miterlimit="1.45" shape-rendering="geometricPrecision" transform="matrix(1,0,0,1,2,-104)" stroke-linecap="butt">
      <rect x="272" y="119.5" clip-path="url(#clipPath2)" fill="none" width="130" rx="4" ry="4" height="184"/>
      <text x="298.5508" xml:space="preserve" y="142.0346" clip-path="url(#clipPath2)" font-family="sans-serif" stroke="none">WorkGroup 2</text>
    </g>
    <g fill="rgb(255,204,0)" text-rendering="geometricPrecision" shape-rendering="geometricPrecision" transform="matrix(1,0,0,1,2,-104)" stroke="rgb(255,204,0)">
      <rect x="286" y="171.5" clip-path="url(#clipPath2)" width="100" rx="4" ry="4" height="119" stroke="none"/>
    </g>
    <g text-rendering="geometricPrecision" stroke-miterlimit="1.45" shape-rendering="geometricPrecision" transform="matrix(1,0,0,1,2,-104)" stroke-linecap="butt">
      <rect x="286" y="171.5" clip-path="url(#clipPath2)" fill="none" width="100" rx="4" ry="4" height="119"/>
      <text x="297.8408" xml:space="preserve" y="191.1525" clip-path="url(#clipPath2)" font-family="sans-serif" stroke="none">TaskQueue 1</text>
    </g>
    <g fill="rgb(255,153,0)" text-rendering="geometricPrecision" shape-rendering="geometricPrecision" transform="matrix(1,0,0,1,2,-104)" stroke="rgb(255,153,0)">
      <rect x="300.6364" y="209.1768" clip-path="url(#clipPath2)" width="72" rx="4" ry="4" height="30" stroke="none"/>
    </g>
    <g text-rendering="geometricPrecision" stroke-miterlimit="1.45" shape-rendering="geometricPrecision" transform="matrix(1,0,0,1,2,-104)" stroke-linecap="butt">
      <rect x="300.6364" y="209.1768" clip-path="url(#clipPath2)" fill="none" width="72" rx="4" ry="4" height="30"/>
      <text x="310.5387" xml:space="preserve" y="228.7119" clip-path="url(#clipPath2)" font-family="sans-serif" stroke="none">Thread 1</text>
    </g>
  </g>
</svg>
