<?xml version="1.0" encoding="UTF-8"?><svg xmlns="http://www.w3.org/2000/svg" xmlns:xlink="http://www.w3.org/1999/xlink" fill-opacity="1" color-rendering="auto" color-interpolation="auto" text-rendering="auto" stroke="black" stroke-linecap="square" width="920" stroke-miterlimit="10" shape-rendering="auto" stroke-opacity="1" fill="black" stroke-dasharray="none" font-weight="normal" stroke-width="1" height="703" font-family="'Dialog'" font-style="normal" stroke-linejoin="miter" font-size="12px" stroke-dashoffset="0" image-rendering="auto">
  <!--Generated by ySVG 2.5-->
  <defs id="genericDefs"/>
  <g>
    <defs id="defs1">
      <clipPath clipPathUnits="userSpaceOnUse" id="clipPath1">
        <path d="M0 0 L920 0 L920 703 L0 703 L0 0 Z"/>
      </clipPath>
      <clipPath clipPathUnits="userSpaceOnUse" id="clipPath2">
        <path d="M-87 -10 L833 -10 L833 693 L-87 693 L-87 -10 Z"/>
      </clipPath>
    </defs>
    <g fill="white" text-rendering="geometricPrecision" shape-rendering="geometricPrecision" transform="translate(87,10)" stroke="white">
      <rect x="-87" width="920" height="703" y="-10" clip-path="url(#clipPath2)" stroke="none"/>
    </g>
    <g fill="rgb(255,204,0)" text-rendering="geometricPrecision" shape-rendering="geometricPrecision" transform="matrix(1,0,0,1,87,10)" stroke="rgb(255,204,0)">
      <rect x="-71.6062" width="67.5" height="44" y="612.1493" clip-path="url(#clipPath2)" stroke="none"/>
    </g>
    <g text-rendering="geometricPrecision" stroke-miterlimit="1.45" shape-rendering="geometricPrecision" transform="matrix(1,0,0,1,87,10)" stroke-linecap="butt">
      <rect fill="none" x="-71.6062" width="67.5" height="44" y="612.1493" clip-path="url(#clipPath2)"/>
      <text x="-57.535" xml:space="preserve" y="638.8632" clip-path="url(#clipPath2)" font-family="sans-serif" stroke="none">Module</text>
    </g>
    <g fill="aqua" text-rendering="geometricPrecision" shape-rendering="geometricPrecision" transform="matrix(1,0,0,1,87,10)" stroke="aqua">
      <rect x="115.6438" width="67.5" height="30" y="619.1493" clip-path="url(#clipPath2)" stroke="none"/>
      <rect x="115.6438" width="1" height="30" y="619.1493" clip-path="url(#clipPath2)" stroke="none"/>
      <rect x="116.6438" width="65.5" height="1" y="619.1493" clip-path="url(#clipPath2)" stroke="none"/>
      <rect x="116.6438" y="648.1493" clip-path="url(#clipPath2)" fill="rgb(0,178,178)" width="66.5" height="1" stroke="none"/>
      <rect x="182.1438" y="619.1493" clip-path="url(#clipPath2)" fill="rgb(0,178,178)" width="1" height="29" stroke="none"/>
    </g>
    <g text-rendering="geometricPrecision" stroke-miterlimit="1.45" shape-rendering="geometricPrecision" font-family="sans-serif" transform="matrix(1,0,0,1,87,10)" stroke-linecap="butt">
      <text x="127.383" xml:space="preserve" y="638.8632" clip-path="url(#clipPath2)" stroke="none">External</text>
    </g>
    <g fill="rgb(255,204,0)" text-rendering="geometricPrecision" shape-rendering="geometricPrecision" transform="matrix(1,0,0,1,87,10)" stroke="rgb(255,204,0)">
      <rect x="25.8938" y="612.1493" clip-path="url(#clipPath2)" width="56" rx="4" ry="4" height="44" stroke="none"/>
    </g>
    <g text-rendering="geometricPrecision" stroke-miterlimit="1.45" shape-rendering="geometricPrecision" transform="matrix(1,0,0,1,87,10)" stroke-linecap="butt">
      <rect x="25.8938" y="612.1493" clip-path="url(#clipPath2)" fill="none" width="56" rx="4" ry="4" height="44"/>
      <text x="38.8908" xml:space="preserve" y="638.8632" clip-path="url(#clipPath2)" font-family="sans-serif" stroke="none">Class</text>
    </g>
    <g fill="rgb(255,204,0)" text-rendering="geometricPrecision" shape-rendering="geometricPrecision" transform="matrix(1,0,0,1,87,10)" stroke="rgb(255,204,0)">
      <rect x="213.1438" y="612.1493" clip-path="url(#clipPath2)" width="89" rx="4" ry="4" height="44" stroke="none"/>
    </g>
    <g text-rendering="geometricPrecision" stroke-miterlimit="1.45" shape-rendering="geometricPrecision" transform="matrix(1,0,0,1,87,10)" stroke-linecap="butt">
      <rect x="213.1438" y="612.1493" clip-path="url(#clipPath2)" fill="none" width="89" rx="4" ry="4" height="44"/>
      <text x="218.9631" xml:space="preserve" y="638.8632" clip-path="url(#clipPath2)" font-family="sans-serif" stroke="none">FrameListener</text>
      <line y2="641.4999" fill="none" x1="218.9631" clip-path="url(#clipPath2)" x2="296.3244" y1="641.4999"/>
    </g>
    <g fill="rgb(245,245,245)" text-rendering="geometricPrecision" shape-rendering="geometricPrecision" transform="matrix(1,0,0,1,87,10)" stroke="rgb(245,245,245)">
      <rect x="289.7688" y="5.9971" clip-path="url(#clipPath2)" width="300.6516" rx="4" ry="4" height="104.3765" stroke="none"/>
      <rect x="289.7688" y="5.9971" clip-path="url(#clipPath2)" fill="rgb(235,235,235)" width="300.6516" height="22.3765" stroke="none"/>
    </g>
    <g font-size="15px" stroke-linecap="butt" transform="matrix(1,0,0,1,87,10)" text-rendering="geometricPrecision" font-family="sans-serif" shape-rendering="geometricPrecision" stroke-miterlimit="1.45">
      <text x="543.391" xml:space="preserve" y="23.0776" clip-path="url(#clipPath2)" stroke="none">Output</text>
      <rect x="289.7688" y="5.9971" clip-path="url(#clipPath2)" fill="none" width="300.6516" stroke-dasharray="6,2" rx="4" ry="4" height="104.3765"/>
    </g>
    <g fill="lime" text-rendering="geometricPrecision" shape-rendering="geometricPrecision" transform="matrix(1,0,0,1,87,10)" stroke="lime">
      <ellipse rx="34.5" ry="26" clip-path="url(#clipPath2)" cx="515.9203" cy="69.3735" stroke="none"/>
    </g>
    <g text-rendering="geometricPrecision" stroke-miterlimit="1.45" shape-rendering="geometricPrecision" transform="matrix(1,0,0,1,87,10)" stroke-linecap="butt">
      <ellipse rx="34.5" fill="none" ry="26" clip-path="url(#clipPath2)" cx="515.9203" cy="69.3735"/>
      <text x="495.2484" xml:space="preserve" y="74.0874" clip-path="url(#clipPath2)" font-family="sans-serif" stroke="none">Overlay</text>
    </g>
    <g fill="lime" text-rendering="geometricPrecision" shape-rendering="geometricPrecision" transform="matrix(1,0,0,1,87,10)" stroke="lime">
      <ellipse rx="34.5" ry="26" clip-path="url(#clipPath2)" cx="339.2688" cy="69.3735" stroke="none"/>
    </g>
    <g text-rendering="geometricPrecision" stroke-miterlimit="1.45" shape-rendering="geometricPrecision" transform="matrix(1,0,0,1,87,10)" stroke-linecap="butt">
      <ellipse rx="34.5" fill="none" ry="26" clip-path="url(#clipPath2)" cx="339.2688" cy="69.3735"/>
      <text x="322.256" xml:space="preserve" y="74.0874" clip-path="url(#clipPath2)" font-family="sans-serif" stroke="none">Scene</text>
      <path fill="none" d="M373.7687 69.3735 L473.4203 69.3735" clip-path="url(#clipPath2)"/>
      <path d="M481.4203 69.3735 L469.4203 64.3735 L472.4203 69.3735 L469.4203 74.3735 Z" clip-path="url(#clipPath2)" stroke="none"/>
    </g>
    <g fill="rgb(245,245,245)" text-rendering="geometricPrecision" shape-rendering="geometricPrecision" transform="matrix(1,0,0,1,87,10)" stroke="rgb(245,245,245)">
      <rect x="669.3078" y="5.9971" clip-path="url(#clipPath2)" width="124" rx="4" ry="4" height="104.3765" stroke="none"/>
      <rect x="669.3078" y="5.9971" clip-path="url(#clipPath2)" fill="rgb(235,235,235)" width="124" height="22.3765" stroke="none"/>
    </g>
    <g font-size="15px" stroke-linecap="butt" transform="matrix(1,0,0,1,87,10)" text-rendering="geometricPrecision" font-family="sans-serif" shape-rendering="geometricPrecision" stroke-miterlimit="1.45">
      <text x="757.946" xml:space="preserve" y="23.0776" clip-path="url(#clipPath2)" stroke="none">Input</text>
      <rect x="669.3078" y="5.9971" clip-path="url(#clipPath2)" fill="none" width="124" stroke-dasharray="6,2" rx="4" ry="4" height="104.3765"/>
    </g>
    <g fill="lime" text-rendering="geometricPrecision" shape-rendering="geometricPrecision" transform="matrix(1,0,0,1,87,10)" stroke="lime">
      <ellipse rx="34.5" ry="26" clip-path="url(#clipPath2)" cx="718.8078" cy="69.3735" stroke="none"/>
    </g>
    <g text-rendering="geometricPrecision" stroke-miterlimit="1.45" shape-rendering="geometricPrecision" transform="matrix(1,0,0,1,87,10)" stroke-linecap="butt">
      <ellipse rx="34.5" fill="none" ry="26" clip-path="url(#clipPath2)" cx="718.8078" cy="69.3735"/>
      <text x="699.132" xml:space="preserve" y="66.7368" clip-path="url(#clipPath2)" font-family="sans-serif" stroke="none">Mouse/</text>
      <text x="693.1232" xml:space="preserve" y="81.438" clip-path="url(#clipPath2)" font-family="sans-serif" stroke="none">Keyboard</text>
    </g>
    <g fill="rgb(245,245,245)" text-rendering="geometricPrecision" shape-rendering="geometricPrecision" transform="matrix(1,0,0,1,87,10)" stroke="rgb(245,245,245)">
      <rect x="315.2688" y="568.6" clip-path="url(#clipPath2)" width="319.4141" rx="4" ry="4" height="108.6993" stroke="none"/>
      <rect x="315.2688" y="568.6" clip-path="url(#clipPath2)" fill="rgb(235,235,235)" width="319.4141" height="22.3765" stroke="none"/>
    </g>
    <g font-size="15px" stroke-linecap="butt" transform="matrix(1,0,0,1,87,10)" text-rendering="geometricPrecision" font-family="sans-serif" shape-rendering="geometricPrecision" stroke-miterlimit="1.45">
      <text x="560.1584" xml:space="preserve" y="585.6805" clip-path="url(#clipPath2)" stroke="none">UserMedia</text>
      <rect x="315.2688" y="568.6" clip-path="url(#clipPath2)" fill="none" width="319.4141" stroke-dasharray="6,2" rx="4" ry="4" height="108.6993"/>
    </g>
    <g fill="rgb(255,102,0)" text-rendering="geometricPrecision" shape-rendering="geometricPrecision" transform="matrix(1,0,0,1,87,10)" stroke="rgb(255,102,0)">
      <path d="M561.4205 623.3798 L577.8225 608.1493 L601.0184 608.1493 L617.4205 623.3798 L617.4205 644.9189 L601.0184 660.1493 L577.8225 660.1493 L561.4205 644.9189 Z" fill-rule="evenodd" clip-path="url(#clipPath2)" stroke="none"/>
    </g>
    <g text-rendering="geometricPrecision" stroke-miterlimit="1.45" shape-rendering="geometricPrecision" transform="matrix(1,0,0,1,87,10)" stroke-linecap="butt">
      <path fill="none" d="M561.4205 623.3798 L577.8225 608.1493 L601.0184 608.1493 L617.4205 623.3798 L617.4205 644.9189 L601.0184 660.1493 L577.8225 660.1493 L561.4205 644.9189 Z" fill-rule="evenodd" clip-path="url(#clipPath2)"/>
      <text x="572.0765" xml:space="preserve" y="631.5126" clip-path="url(#clipPath2)" font-family="sans-serif" stroke="none">Global</text>
      <text x="571.0834" xml:space="preserve" y="646.2138" clip-path="url(#clipPath2)" font-family="sans-serif" stroke="none">Scripts</text>
    </g>
    <g fill="rgb(255,102,0)" text-rendering="geometricPrecision" shape-rendering="geometricPrecision" transform="matrix(1,0,0,1,87,10)" stroke="rgb(255,102,0)">
      <path d="M340.9203 623.3798 L357.3223 608.1493 L380.5182 608.1493 L396.9203 623.3798 L396.9203 644.9189 L380.5182 660.1493 L357.3223 660.1493 L340.9203 644.9189 Z" fill-rule="evenodd" clip-path="url(#clipPath2)" stroke="none"/>
    </g>
    <g text-rendering="geometricPrecision" stroke-miterlimit="1.45" shape-rendering="geometricPrecision" transform="matrix(1,0,0,1,87,10)" stroke-linecap="butt">
      <path fill="none" d="M340.9203 623.3798 L357.3223 608.1493 L380.5182 608.1493 L396.9203 623.3798 L396.9203 644.9189 L380.5182 660.1493 L357.3223 660.1493 L340.9203 644.9189 Z" fill-rule="evenodd" clip-path="url(#clipPath2)"/>
      <text x="349.5785" xml:space="preserve" y="638.8632" clip-path="url(#clipPath2)" font-family="sans-serif" stroke="none">Models</text>
    </g>
    <g fill="rgb(255,102,0)" text-rendering="geometricPrecision" shape-rendering="geometricPrecision" transform="matrix(1,0,0,1,87,10)" stroke="rgb(255,102,0)">
      <path d="M414.4203 623.3797 L430.8223 608.1493 L454.0182 608.1493 L470.4203 623.3797 L470.4203 644.9188 L454.0182 660.1493 L430.8223 660.1493 L414.4203 644.9188 Z" fill-rule="evenodd" clip-path="url(#clipPath2)" stroke="none"/>
    </g>
    <g text-rendering="geometricPrecision" stroke-miterlimit="1.45" shape-rendering="geometricPrecision" transform="matrix(1,0,0,1,87,10)" stroke-linecap="butt">
      <path fill="none" d="M414.4203 623.3797 L430.8223 608.1493 L454.0182 608.1493 L470.4203 623.3797 L470.4203 644.9188 L454.0182 660.1493 L430.8223 660.1493 L414.4203 644.9188 Z" fill-rule="evenodd" clip-path="url(#clipPath2)"/>
      <text x="427.4145" xml:space="preserve" y="631.5126" clip-path="url(#clipPath2)" font-family="sans-serif" stroke="none">Entity</text>
      <text x="424.0834" xml:space="preserve" y="646.2138" clip-path="url(#clipPath2)" font-family="sans-serif" stroke="none">Scripts</text>
    </g>
    <g fill="rgb(255,102,0)" text-rendering="geometricPrecision" shape-rendering="geometricPrecision" transform="matrix(1,0,0,1,87,10)" stroke="rgb(255,102,0)">
      <path d="M487.9204 623.3798 L504.3225 608.1493 L527.5185 608.1493 L543.9205 623.3798 L543.9205 644.9189 L527.5185 660.1493 L504.3225 660.1493 L487.9204 644.9189 Z" fill-rule="evenodd" clip-path="url(#clipPath2)" stroke="none"/>
    </g>
    <g text-rendering="geometricPrecision" stroke-miterlimit="1.45" shape-rendering="geometricPrecision" transform="matrix(1,0,0,1,87,10)" stroke-linecap="butt">
      <path fill="none" d="M487.9204 623.3798 L504.3225 608.1493 L527.5185 608.1493 L543.9205 623.3798 L543.9205 644.9189 L527.5185 660.1493 L504.3225 660.1493 L487.9204 644.9189 Z" fill-rule="evenodd" clip-path="url(#clipPath2)"/>
      <text x="494.9057" xml:space="preserve" y="638.8632" clip-path="url(#clipPath2)" font-family="sans-serif" stroke="none">Layouts</text>
    </g>
    <g fill="rgb(245,245,245)" text-rendering="geometricPrecision" shape-rendering="geometricPrecision" transform="matrix(1,0,0,1,87,10)" stroke="rgb(245,245,245)">
      <rect x="130.6563" y="125.3735" clip-path="url(#clipPath2)" width="686.8031" rx="4" ry="4" height="436.7265" stroke="none"/>
      <rect x="130.6563" y="125.3735" clip-path="url(#clipPath2)" fill="rgb(235,235,235)" width="686.8031" height="22.3765" stroke="none"/>
    </g>
    <g font-size="15px" stroke-linecap="butt" transform="matrix(1,0,0,1,87,10)" text-rendering="geometricPrecision" font-family="sans-serif" shape-rendering="geometricPrecision" stroke-miterlimit="1.45">
      <text x="757.9203" xml:space="preserve" y="142.4541" clip-path="url(#clipPath2)" stroke="none">Madgine</text>
      <rect x="130.6563" y="125.3735" clip-path="url(#clipPath2)" fill="none" width="686.8031" stroke-dasharray="6,2" rx="4" ry="4" height="436.7265"/>
    </g>
    <g fill="rgb(255,204,0)" text-rendering="geometricPrecision" shape-rendering="geometricPrecision" transform="matrix(1,0,0,1,87,10)" stroke="rgb(255,204,0)">
      <rect x="500.9203" width="30" height="30" y="349.5" clip-path="url(#clipPath2)" stroke="none"/>
    </g>
    <g text-rendering="geometricPrecision" stroke-miterlimit="1.45" shape-rendering="geometricPrecision" transform="matrix(1,0,0,1,87,10)" stroke-linecap="butt">
      <rect fill="none" x="500.9203" width="30" height="30" y="349.5" clip-path="url(#clipPath2)"/>
      <text x="505.2533" xml:space="preserve" y="369.2139" clip-path="url(#clipPath2)" font-family="sans-serif" stroke="none">GUI</text>
    </g>
    <g fill="rgb(255,204,0)" text-rendering="geometricPrecision" shape-rendering="geometricPrecision" transform="matrix(1,0,0,1,87,10)" stroke="rgb(255,204,0)">
      <rect x="397.1578" width="67.5" height="30" y="235.75" clip-path="url(#clipPath2)" stroke="none"/>
    </g>
    <g text-rendering="geometricPrecision" stroke-miterlimit="1.45" shape-rendering="geometricPrecision" transform="matrix(1,0,0,1,87,10)" stroke-linecap="butt">
      <rect fill="none" x="397.1578" width="67.5" height="30" y="235.75" clip-path="url(#clipPath2)"/>
      <text x="412.2428" xml:space="preserve" y="248.1133" clip-path="url(#clipPath2)" font-family="sans-serif" stroke="none">MyGUI</text>
      <text x="407.901" xml:space="preserve" y="262.8145" clip-path="url(#clipPath2)" font-family="sans-serif" stroke="none">Wrapper</text>
    </g>
    <g fill="rgb(255,204,0)" text-rendering="geometricPrecision" shape-rendering="geometricPrecision" transform="matrix(1,0,0,1,87,10)" stroke="rgb(255,204,0)">
      <rect x="482.1703" width="67.5" height="30" y="235.75" clip-path="url(#clipPath2)" stroke="none"/>
    </g>
    <g text-rendering="geometricPrecision" stroke-miterlimit="1.45" shape-rendering="geometricPrecision" transform="matrix(1,0,0,1,87,10)" stroke-linecap="butt">
      <rect fill="none" x="482.1703" width="67.5" height="30" y="235.75" clip-path="url(#clipPath2)"/>
      <text x="496.9184" xml:space="preserve" y="248.1133" clip-path="url(#clipPath2)" font-family="sans-serif" stroke="none">CEGUI</text>
      <text x="492.9135" xml:space="preserve" y="262.8145" clip-path="url(#clipPath2)" font-family="sans-serif" stroke="none">Wrapper</text>
    </g>
    <g fill="rgb(255,204,0)" text-rendering="geometricPrecision" shape-rendering="geometricPrecision" transform="matrix(1,0,0,1,87,10)" stroke="rgb(255,204,0)">
      <rect x="567.1828" width="67.5" height="30" y="235.75" clip-path="url(#clipPath2)" stroke="none"/>
    </g>
    <g text-rendering="geometricPrecision" stroke-miterlimit="1.45" shape-rendering="geometricPrecision" transform="matrix(1,0,0,1,87,10)" stroke-linecap="butt">
      <rect fill="none" x="567.1828" width="67.5" height="30" y="235.75" clip-path="url(#clipPath2)"/>
      <text x="595.9318" xml:space="preserve" y="248.1133" clip-path="url(#clipPath2)" font-family="sans-serif" stroke="none">...</text>
      <text x="577.926" xml:space="preserve" y="262.8145" clip-path="url(#clipPath2)" font-family="sans-serif" stroke="none">Wrapper</text>
    </g>
    <g fill="rgb(255,204,0)" text-rendering="geometricPrecision" shape-rendering="geometricPrecision" transform="matrix(1,0,0,1,87,10)" stroke="rgb(255,204,0)">
      <rect x="145.6563" y="503.1" clip-path="url(#clipPath2)" width="112.9875" rx="4" ry="4" height="44" stroke="none"/>
    </g>
    <g text-rendering="geometricPrecision" stroke-miterlimit="1.45" shape-rendering="geometricPrecision" transform="matrix(1,0,0,1,87,10)" stroke-linecap="butt">
      <rect x="145.6563" y="503.1" clip-path="url(#clipPath2)" fill="none" width="112.9875" rx="4" ry="4" height="44"/>
      <text x="156.1246" xml:space="preserve" y="529.8138" clip-path="url(#clipPath2)" font-family="sans-serif" stroke="none">EntityComponent</text>
    </g>
    <g fill="aqua" text-rendering="geometricPrecision" shape-rendering="geometricPrecision" transform="matrix(1,0,0,1,87,10)" stroke="aqua">
      <rect x="667.6641" width="30" height="30" y="162.75" clip-path="url(#clipPath2)" stroke="none"/>
    </g>
    <g text-rendering="geometricPrecision" stroke-miterlimit="1.45" shape-rendering="geometricPrecision" transform="matrix(1,0,0,1,87,10)" stroke-linecap="butt">
      <rect fill="none" x="667.6641" width="30" height="30" y="162.75" clip-path="url(#clipPath2)"/>
      <text x="672.3281" xml:space="preserve" y="182.4639" clip-path="url(#clipPath2)" font-family="sans-serif" stroke="none">OIS</text>
    </g>
    <g fill="aqua" text-rendering="geometricPrecision" shape-rendering="geometricPrecision" transform="matrix(1,0,0,1,87,10)" stroke="aqua">
      <rect x="406.9078" width="48" height="30" y="162.75" clip-path="url(#clipPath2)" stroke="none"/>
    </g>
    <g text-rendering="geometricPrecision" stroke-miterlimit="1.45" shape-rendering="geometricPrecision" transform="matrix(1,0,0,1,87,10)" stroke-linecap="butt">
      <rect fill="none" x="406.9078" width="48" height="30" y="162.75" clip-path="url(#clipPath2)"/>
      <text x="412.2428" xml:space="preserve" y="182.4639" clip-path="url(#clipPath2)" font-family="sans-serif" stroke="none">MyGUI</text>
    </g>
    <g fill="aqua" text-rendering="geometricPrecision" shape-rendering="geometricPrecision" transform="matrix(1,0,0,1,87,10)" stroke="aqua">
      <rect x="491.9203" width="48" height="30" y="162.75" clip-path="url(#clipPath2)" stroke="none"/>
    </g>
    <g text-rendering="geometricPrecision" stroke-miterlimit="1.45" shape-rendering="geometricPrecision" transform="matrix(1,0,0,1,87,10)" stroke-linecap="butt">
      <rect fill="none" x="491.9203" width="48" height="30" y="162.75" clip-path="url(#clipPath2)"/>
      <text x="496.9184" xml:space="preserve" y="182.4639" clip-path="url(#clipPath2)" font-family="sans-serif" stroke="none">CEGUI</text>
    </g>
    <g fill="aqua" text-rendering="geometricPrecision" shape-rendering="geometricPrecision" transform="matrix(1,0,0,1,87,10)" stroke="aqua">
      <rect x="576.9328" width="48" height="30" y="162.75" clip-path="url(#clipPath2)" stroke="none"/>
    </g>
    <g text-rendering="geometricPrecision" stroke-miterlimit="1.45" shape-rendering="geometricPrecision" transform="matrix(1,0,0,1,87,10)" stroke-linecap="butt">
      <rect fill="none" x="576.9328" width="48" height="30" y="162.75" clip-path="url(#clipPath2)"/>
      <text x="595.9318" xml:space="preserve" y="182.4639" clip-path="url(#clipPath2)" font-family="sans-serif" stroke="none">...</text>
    </g>
    <g fill="aqua" text-rendering="geometricPrecision" shape-rendering="geometricPrecision" transform="matrix(1,0,0,1,87,10)" stroke="aqua">
      <rect x="315.2688" width="48" height="30" y="162.75" clip-path="url(#clipPath2)" stroke="none"/>
    </g>
    <g text-rendering="geometricPrecision" stroke-miterlimit="1.45" shape-rendering="geometricPrecision" transform="matrix(1,0,0,1,87,10)" stroke-linecap="butt">
      <rect fill="none" x="315.2688" width="48" height="30" y="162.75" clip-path="url(#clipPath2)"/>
      <text x="321.5998" xml:space="preserve" y="182.4639" clip-path="url(#clipPath2)" font-family="sans-serif" stroke="none">OGRE</text>
    </g>
    <g fill="rgb(255,204,0)" text-rendering="geometricPrecision" shape-rendering="geometricPrecision" transform="matrix(1,0,0,1,87,10)" stroke="rgb(255,204,0)">
      <rect x="294.7688" y="503.1" clip-path="url(#clipPath2)" width="89" rx="4" ry="4" height="44" stroke="none"/>
    </g>
    <g text-rendering="geometricPrecision" stroke-miterlimit="1.45" shape-rendering="geometricPrecision" transform="matrix(1,0,0,1,87,10)" stroke-linecap="butt">
      <rect x="294.7688" y="503.1" clip-path="url(#clipPath2)" fill="none" width="89" rx="4" ry="4" height="44"/>
      <text x="319.593" xml:space="preserve" y="529.8138" clip-path="url(#clipPath2)" font-family="sans-serif" stroke="none">Entities</text>
    </g>
    <g fill="rgb(255,204,0)" text-rendering="geometricPrecision" shape-rendering="geometricPrecision" transform="matrix(1,0,0,1,87,10)" stroke="rgb(255,204,0)">
      <rect x="684.8078" y="342.5" clip-path="url(#clipPath2)" width="82" rx="4" ry="4" height="44" stroke="none"/>
    </g>
    <g text-rendering="geometricPrecision" stroke-miterlimit="1.45" shape-rendering="geometricPrecision" transform="matrix(1,0,0,1,87,10)" stroke-linecap="butt">
      <rect x="684.8078" y="342.5" clip-path="url(#clipPath2)" fill="none" width="82" rx="4" ry="4" height="44"/>
      <text x="691.4514" xml:space="preserve" y="369.2139" clip-path="url(#clipPath2)" font-family="sans-serif" stroke="none">InputHandler</text>
    </g>
    <g fill="aqua" text-rendering="geometricPrecision" shape-rendering="geometricPrecision" transform="matrix(1,0,0,1,87,10)" stroke="aqua">
      <rect x="749.3953" width="30" height="30" y="162.75" clip-path="url(#clipPath2)" stroke="none"/>
    </g>
    <g text-rendering="geometricPrecision" stroke-miterlimit="1.45" shape-rendering="geometricPrecision" transform="matrix(1,0,0,1,87,10)" stroke-linecap="butt">
      <rect fill="none" x="749.3953" width="30" height="30" y="162.75" clip-path="url(#clipPath2)"/>
      <text x="759.3943" xml:space="preserve" y="182.4639" clip-path="url(#clipPath2)" font-family="sans-serif" stroke="none">...</text>
    </g>
    <g fill="rgb(255,204,0)" text-rendering="geometricPrecision" shape-rendering="geometricPrecision" transform="matrix(1,0,0,1,87,10)" stroke="rgb(255,204,0)">
      <rect x="648.9141" width="67.5" height="30" y="235.75" clip-path="url(#clipPath2)" stroke="none"/>
    </g>
    <g text-rendering="geometricPrecision" stroke-miterlimit="1.45" shape-rendering="geometricPrecision" transform="matrix(1,0,0,1,87,10)" stroke-linecap="butt">
      <rect fill="none" x="648.9141" width="67.5" height="30" y="235.75" clip-path="url(#clipPath2)"/>
      <text x="672.3281" xml:space="preserve" y="248.1133" clip-path="url(#clipPath2)" font-family="sans-serif" stroke="none">OIS</text>
      <text x="659.6572" xml:space="preserve" y="262.8145" clip-path="url(#clipPath2)" font-family="sans-serif" stroke="none">Wrapper</text>
    </g>
    <g fill="rgb(255,204,0)" text-rendering="geometricPrecision" shape-rendering="geometricPrecision" transform="matrix(1,0,0,1,87,10)" stroke="rgb(255,204,0)">
      <rect x="730.6453" width="67.5" height="30" y="235.75" clip-path="url(#clipPath2)" stroke="none"/>
    </g>
    <g text-rendering="geometricPrecision" stroke-miterlimit="1.45" shape-rendering="geometricPrecision" transform="matrix(1,0,0,1,87,10)" stroke-linecap="butt">
      <rect fill="none" x="730.6453" width="67.5" height="30" y="235.75" clip-path="url(#clipPath2)"/>
      <text x="759.3943" xml:space="preserve" y="248.1133" clip-path="url(#clipPath2)" font-family="sans-serif" stroke="none">...</text>
      <text x="741.3885" xml:space="preserve" y="262.8145" clip-path="url(#clipPath2)" font-family="sans-serif" stroke="none">Wrapper</text>
    </g>
    <g fill="rgb(255,204,0)" text-rendering="geometricPrecision" shape-rendering="geometricPrecision" transform="matrix(1,0,0,1,87,10)" stroke="rgb(255,204,0)">
      <rect x="684.8078" y="422.8" clip-path="url(#clipPath2)" width="82" rx="4" ry="4" height="44" stroke="none"/>
    </g>
    <g text-rendering="geometricPrecision" stroke-miterlimit="1.45" shape-rendering="geometricPrecision" transform="matrix(1,0,0,1,87,10)" stroke-linecap="butt">
      <rect x="684.8078" y="422.8" clip-path="url(#clipPath2)" fill="none" width="82" rx="4" ry="4" height="44"/>
      <text x="696.4553" xml:space="preserve" y="449.5139" clip-path="url(#clipPath2)" font-family="sans-serif" stroke="none">Application</text>
      <line y2="452.1506" fill="none" x1="696.4553" clip-path="url(#clipPath2)" x2="755.1604" y1="452.1506"/>
      <path fill="none" d="M515.9203 608.1785 L515.9203 387.5" clip-path="url(#clipPath2)"/>
      <path d="M515.9203 379.5 L510.9203 391.5 L515.9203 388.5 L520.9203 391.5 Z" clip-path="url(#clipPath2)" stroke="none"/>
      <path fill="none" d="M504.7099 349.5 L446.9074 272.1581" clip-path="url(#clipPath2)"/>
      <path d="M442.1183 265.75 L445.297 278.3554 L447.5061 272.9591 L453.3071 272.3689 Z" clip-path="url(#clipPath2)" stroke="none"/>
      <path fill="none" d="M515.9203 349.5 L515.9203 273.75" clip-path="url(#clipPath2)"/>
      <path d="M515.9203 265.75 L510.9203 277.75 L515.9203 274.75 L520.9203 277.75 Z" clip-path="url(#clipPath2)" stroke="none"/>
      <path fill="none" d="M527.1307 349.5 L584.9332 272.1581" clip-path="url(#clipPath2)"/>
      <path d="M589.7224 265.75 L578.5335 272.3689 L584.3345 272.9591 L586.5436 278.3554 Z" clip-path="url(#clipPath2)" stroke="none"/>
      <path fill="none" d="M710.3983 94.5893 L690.1921 155.1774" clip-path="url(#clipPath2)"/>
      <path d="M687.6611 162.7664 L696.2007 152.9647 L690.5084 154.2287 L686.7144 149.8009 Z" clip-path="url(#clipPath2)" stroke="none"/>
      <path fill="none" d="M430.9078 235.75 L430.9078 200.75" clip-path="url(#clipPath2)"/>
      <path d="M430.9078 192.75 L425.9078 204.75 L430.9078 201.75 L435.9078 204.75 Z" clip-path="url(#clipPath2)" stroke="none"/>
      <path fill="none" d="M442.6759 162.7477 L493.4262 98.0497" clip-path="url(#clipPath2)"/>
      <path d="M498.3637 91.7552 L487.0233 98.111 L492.809 98.8365 L494.8915 104.2829 Z" clip-path="url(#clipPath2)" stroke="none"/>
      <path fill="none" d="M515.9203 235.75 L515.9203 200.75" clip-path="url(#clipPath2)"/>
      <path d="M515.9203 192.75 L510.9203 204.75 L515.9203 201.75 L520.9203 204.75 Z" clip-path="url(#clipPath2)" stroke="none"/>
      <path fill="none" d="M515.9203 162.75 L515.9203 103.3735" clip-path="url(#clipPath2)"/>
      <path d="M515.9203 95.3735 L510.9203 107.3735 L515.9203 104.3735 L520.9203 107.3735 Z" clip-path="url(#clipPath2)" stroke="none"/>
      <path fill="none" d="M600.9328 235.75 L600.9328 200.75" clip-path="url(#clipPath2)"/>
      <path d="M600.9328 192.75 L595.9328 204.75 L600.9328 201.75 L605.9328 204.75 Z" clip-path="url(#clipPath2)" stroke="none"/>
      <path fill="none" d="M589.1647 162.7477 L538.4144 98.0497" clip-path="url(#clipPath2)"/>
      <path d="M533.4769 91.7552 L536.9491 104.2829 L539.0316 98.8365 L544.8173 98.111 Z" clip-path="url(#clipPath2)" stroke="none"/>
      <path fill="none" d="M339.2687 162.75 L339.2687 103.3735" clip-path="url(#clipPath2)"/>
      <path d="M339.2687 95.3735 L334.2687 107.3735 L339.2687 104.3735 L344.2687 107.3735 Z" clip-path="url(#clipPath2)" stroke="none"/>
      <path fill="none" d="M422.8318 615.5928 L356.3191 552.5843" clip-path="url(#clipPath2)"/>
      <path d="M350.5113 547.0825 L355.7844 558.9651 L357.045 553.272 L362.6616 551.7053 Z" clip-path="url(#clipPath2)" stroke="none"/>
      <path fill="none" d="M361.8477 608.1383 L347.3543 554.8362" clip-path="url(#clipPath2)"/>
      <path d="M345.2552 547.1165 L343.579 560.0079 L347.6167 555.8011 L353.2287 557.3841 Z" clip-path="url(#clipPath2)" stroke="none"/>
      <path fill="none" d="M294.7788 525.1 L266.6409 525.1" clip-path="url(#clipPath2)"/>
      <path d="M258.6409 525.1 L270.6409 530.1 L267.6409 525.1 L270.6409 520.1 Z" clip-path="url(#clipPath2)" stroke="none"/>
      <path fill="none" d="M684.7885 364.5 L538.9203 364.5" clip-path="url(#clipPath2)"/>
      <path d="M530.9203 364.5 L542.9203 369.5 L539.9203 364.5 L542.9203 359.5 Z" clip-path="url(#clipPath2)" stroke="none"/>
      <path fill="none" d="M729.2332 94.158 L754.9838 155.3758" clip-path="url(#clipPath2)"/>
      <path d="M758.0857 162.75 L758.0417 149.7501 L754.5961 154.4541 L748.824 153.6274 Z" clip-path="url(#clipPath2)" stroke="none"/>
      <path fill="none" d="M682.6641 192.75 L682.6641 227.75" clip-path="url(#clipPath2)"/>
      <path d="M682.6641 235.75 L687.6641 223.75 L682.6641 226.75 L677.6641 223.75 Z" clip-path="url(#clipPath2)" stroke="none"/>
      <path fill="none" d="M688.3533 265.75 L714.6221 335.0085" clip-path="url(#clipPath2)"/>
      <path d="M717.4592 342.4886 L717.8787 329.4954 L714.2675 334.0735 L708.5286 333.0417 Z" clip-path="url(#clipPath2)" stroke="none"/>
      <path fill="none" d="M764.3953 192.75 L764.3953 227.75" clip-path="url(#clipPath2)"/>
      <path d="M764.3953 235.75 L769.3953 223.75 L764.3953 226.75 L759.3953 223.75 Z" clip-path="url(#clipPath2)" stroke="none"/>
      <path fill="none" d="M759.3068 265.75 L735.8448 334.9126" clip-path="url(#clipPath2)"/>
      <path d="M733.2748 342.4886 L741.8647 332.7309 L736.166 333.9656 L732.3948 329.5184 Z" clip-path="url(#clipPath2)" stroke="none"/>
      <path fill="none" d="M725.8078 422.8038 L725.8078 394.5063" clip-path="url(#clipPath2)"/>
      <path d="M725.8078 386.5063 L720.8078 398.5063 L725.8078 395.5063 L730.8078 398.5063 Z" clip-path="url(#clipPath2)" stroke="none"/>
    </g>
    <g fill="rgb(245,245,245)" text-rendering="geometricPrecision" shape-rendering="geometricPrecision" transform="matrix(1,0,0,1,87,10)" stroke="rgb(245,245,245)">
      <rect x="-65.2312" y="150.8235" clip-path="url(#clipPath2)" width="182" rx="4" ry="4" height="411.2765" stroke="none"/>
      <rect x="-65.2312" y="150.8235" clip-path="url(#clipPath2)" fill="rgb(235,235,235)" width="182" height="22.3765" stroke="none"/>
    </g>
    <g font-size="15px" stroke-linecap="butt" transform="matrix(1,0,0,1,87,10)" text-rendering="geometricPrecision" font-family="sans-serif" shape-rendering="geometricPrecision" stroke-miterlimit="1.45">
      <text x="47.2395" xml:space="preserve" y="167.9041" clip-path="url(#clipPath2)" stroke="none">UserCode</text>
      <rect x="-65.2312" y="150.8235" clip-path="url(#clipPath2)" fill="none" width="182" stroke-dasharray="6,2" rx="4" ry="4" height="411.2765"/>
    </g>
    <g fill="rgb(255,204,0)" text-rendering="geometricPrecision" shape-rendering="geometricPrecision" transform="matrix(1,0,0,1,87,10)" stroke="rgb(255,204,0)">
      <rect x="-41.4906" y="503.1" clip-path="url(#clipPath2)" width="135.2437" rx="4" ry="4" height="44" stroke="none"/>
    </g>
    <g text-rendering="geometricPrecision" stroke-miterlimit="1.45" shape-rendering="geometricPrecision" transform="matrix(1,0,0,1,87,10)" stroke-linecap="butt">
      <rect x="-41.4906" y="503.1" clip-path="url(#clipPath2)" fill="none" width="135.2437" rx="4" ry="4" height="44"/>
      <text x="-42.233" xml:space="preserve" y="529.8138" clip-path="url(#clipPath2)" font-family="sans-serif" stroke="none">Custom EntityComponent</text>
    </g>
    <g fill="rgb(255,204,0)" text-rendering="geometricPrecision" shape-rendering="geometricPrecision" transform="matrix(1,0,0,1,87,10)" stroke="rgb(255,204,0)">
      <rect x="-30.725" y="262.2" clip-path="url(#clipPath2)" width="112.9875" rx="4" ry="4" height="44" stroke="none"/>
    </g>
    <g text-rendering="geometricPrecision" stroke-miterlimit="1.45" shape-rendering="geometricPrecision" transform="matrix(1,0,0,1,87,10)" stroke-linecap="butt">
      <rect x="-30.725" y="262.2" clip-path="url(#clipPath2)" fill="none" width="112.9875" rx="4" ry="4" height="44"/>
      <text x="-26.9188" xml:space="preserve" y="288.9139" clip-path="url(#clipPath2)" font-family="sans-serif" stroke="none">Custom GuiHandler</text>
    </g>
    <g fill="rgb(255,204,0)" text-rendering="geometricPrecision" shape-rendering="geometricPrecision" transform="matrix(1,0,0,1,87,10)" stroke="rgb(255,204,0)">
      <rect x="-37.1719" y="342.5" clip-path="url(#clipPath2)" width="125.8813" rx="4" ry="4" height="44" stroke="none"/>
    </g>
    <g text-rendering="geometricPrecision" stroke-miterlimit="1.45" shape-rendering="geometricPrecision" transform="matrix(1,0,0,1,87,10)" stroke-linecap="butt">
      <rect x="-37.1719" y="342.5" clip-path="url(#clipPath2)" fill="none" width="125.8813" rx="4" ry="4" height="44"/>
      <text x="-33.9207" xml:space="preserve" y="369.2139" clip-path="url(#clipPath2)" font-family="sans-serif" stroke="none">Custom GameHandler</text>
    </g>
    <g fill="rgb(255,204,0)" text-rendering="geometricPrecision" shape-rendering="geometricPrecision" transform="matrix(1,0,0,1,87,10)" stroke="rgb(255,204,0)">
      <rect x="-50.2312" y="422.8" clip-path="url(#clipPath2)" width="152" rx="4" ry="4" height="44" stroke="none"/>
    </g>
    <g text-rendering="geometricPrecision" stroke-miterlimit="1.45" shape-rendering="geometricPrecision" transform="matrix(1,0,0,1,87,10)" stroke-linecap="butt">
      <rect x="-50.2312" y="422.8" clip-path="url(#clipPath2)" fill="none" width="152" rx="4" ry="4" height="44"/>
      <text x="-44.6023" xml:space="preserve" y="449.5139" clip-path="url(#clipPath2)" font-family="sans-serif" stroke="none">Custom SceneComponent</text>
    </g>
    <g fill="rgb(255,204,0)" text-rendering="geometricPrecision" shape-rendering="geometricPrecision" transform="matrix(1,0,0,1,87,10)" stroke="rgb(255,204,0)">
      <rect x="-30.3625" y="188.2" clip-path="url(#clipPath2)" width="112.9875" rx="4" ry="4" height="44" stroke="none"/>
    </g>
    <g text-rendering="geometricPrecision" stroke-miterlimit="1.45" shape-rendering="geometricPrecision" transform="matrix(1,0,0,1,87,10)" stroke-linecap="butt">
      <rect x="-30.3625" y="188.2" clip-path="url(#clipPath2)" fill="none" width="112.9875" rx="4" ry="4" height="44"/>
      <text x="-23.2223" xml:space="preserve" y="214.9139" clip-path="url(#clipPath2)" font-family="sans-serif" stroke="none">Custom GlobalAPI</text>
    </g>
    <g fill="rgb(255,204,0)" text-rendering="geometricPrecision" shape-rendering="geometricPrecision" transform="matrix(1,0,0,1,87,10)" stroke="rgb(255,204,0)">
      <rect x="413.9203" y="422.8" clip-path="url(#clipPath2)" width="82" rx="4" ry="4" height="44" stroke="none"/>
    </g>
    <g text-rendering="geometricPrecision" stroke-miterlimit="1.45" shape-rendering="geometricPrecision" transform="matrix(1,0,0,1,87,10)" stroke-linecap="butt">
      <rect x="413.9203" y="422.8" clip-path="url(#clipPath2)" fill="none" width="82" rx="4" ry="4" height="44"/>
      <text x="425.2397" xml:space="preserve" y="449.5139" clip-path="url(#clipPath2)" font-family="sans-serif" stroke="none">UIManager</text>
    </g>
    <g fill="rgb(255,204,0)" text-rendering="geometricPrecision" shape-rendering="geometricPrecision" transform="matrix(1,0,0,1,87,10)" stroke="rgb(255,204,0)">
      <rect x="294.7688" y="422.8" clip-path="url(#clipPath2)" width="89" rx="4" ry="4" height="44" stroke="none"/>
    </g>
    <g text-rendering="geometricPrecision" stroke-miterlimit="1.45" shape-rendering="geometricPrecision" transform="matrix(1,0,0,1,87,10)" stroke-linecap="butt">
      <rect x="294.7688" y="422.8" clip-path="url(#clipPath2)" fill="none" width="89" rx="4" ry="4" height="44"/>
      <text x="298.5754" xml:space="preserve" y="449.5139" clip-path="url(#clipPath2)" font-family="sans-serif" stroke="none">SceneManager</text>
    </g>
    <g fill="rgb(255,204,0)" text-rendering="geometricPrecision" shape-rendering="geometricPrecision" transform="matrix(1,0,0,1,87,10)" stroke="rgb(255,204,0)">
      <rect x="145.6563" y="262.2" clip-path="url(#clipPath2)" width="112.9875" rx="4" ry="4" height="44" stroke="none"/>
    </g>
    <g text-rendering="geometricPrecision" stroke-miterlimit="1.45" shape-rendering="geometricPrecision" transform="matrix(1,0,0,1,87,10)" stroke-linecap="butt">
      <rect x="145.6563" y="262.2" clip-path="url(#clipPath2)" fill="none" width="112.9875" rx="4" ry="4" height="44"/>
      <text x="171.8014" xml:space="preserve" y="288.9139" clip-path="url(#clipPath2)" font-family="sans-serif" stroke="none">GuiHandler</text>
    </g>
    <g fill="rgb(255,204,0)" text-rendering="geometricPrecision" shape-rendering="geometricPrecision" transform="matrix(1,0,0,1,87,10)" stroke="rgb(255,204,0)">
      <rect x="145.6563" y="342.5" clip-path="url(#clipPath2)" width="112.9875" rx="4" ry="4" height="44" stroke="none"/>
    </g>
    <g text-rendering="geometricPrecision" stroke-miterlimit="1.45" shape-rendering="geometricPrecision" transform="matrix(1,0,0,1,87,10)" stroke-linecap="butt">
      <rect x="145.6563" y="342.5" clip-path="url(#clipPath2)" fill="none" width="112.9875" rx="4" ry="4" height="44"/>
      <text x="164.7994" xml:space="preserve" y="369.2139" clip-path="url(#clipPath2)" font-family="sans-serif" stroke="none">GameHandler</text>
    </g>
    <g fill="rgb(255,204,0)" text-rendering="geometricPrecision" shape-rendering="geometricPrecision" transform="matrix(1,0,0,1,87,10)" stroke="rgb(255,204,0)">
      <rect x="145.6563" y="422.8" clip-path="url(#clipPath2)" width="112.9875" rx="4" ry="4" height="44" stroke="none"/>
    </g>
    <g text-rendering="geometricPrecision" stroke-miterlimit="1.45" shape-rendering="geometricPrecision" transform="matrix(1,0,0,1,87,10)" stroke-linecap="butt">
      <rect x="145.6563" y="422.8" clip-path="url(#clipPath2)" fill="none" width="112.9875" rx="4" ry="4" height="44"/>
      <text x="150.7809" xml:space="preserve" y="449.5139" clip-path="url(#clipPath2)" font-family="sans-serif" stroke="none">SceneComponenet</text>
      <path fill="none" d="M145.6401 525.1 L101.7343 525.1" clip-path="url(#clipPath2)"/>
      <path d="M93.7343 525.1 L105.7343 530.1 L102.7343 525.1 L105.7343 520.1 Z" clip-path="url(#clipPath2)" stroke="none"/>
      <path fill="none" d="M26.032 503.1038 L25.9042 474.8062" clip-path="url(#clipPath2)"/>
      <path d="M25.8681 466.8063 L20.9223 478.8287 L25.9087 475.8062 L30.9222 478.7836 Z" clip-path="url(#clipPath2)" stroke="none"/>
      <path fill="none" d="M25.868 466.7962 L25.9958 495.0938" clip-path="url(#clipPath2)"/>
      <path d="M26.0319 503.0938 L30.9777 491.0713 L25.9913 494.0938 L20.9778 491.1165 Z" clip-path="url(#clipPath2)" stroke="none"/>
      <path fill="none" d="M684.8374 444.8 L503.9248 444.8" clip-path="url(#clipPath2)"/>
      <path d="M495.9248 444.8 L507.9248 449.8 L504.9248 444.8 L507.9248 439.8 Z" clip-path="url(#clipPath2)" stroke="none"/>
      <path fill="none" d="M413.8945 444.8 L391.76 444.8" clip-path="url(#clipPath2)"/>
      <path d="M383.76 444.8 L395.76 449.8 L392.76 444.8 L395.76 439.8 Z" clip-path="url(#clipPath2)" stroke="none"/>
      <path fill="none" d="M339.2687 466.7962 L339.2687 495.0938" clip-path="url(#clipPath2)"/>
      <path d="M339.2687 503.0938 L344.2687 491.0938 L339.2687 494.0938 L334.2687 491.0938 Z" clip-path="url(#clipPath2)" stroke="none"/>
      <path fill="none" d="M339.2687 422.7957 L339.2687 200.75" clip-path="url(#clipPath2)"/>
      <path d="M339.2687 192.75 L334.2687 204.75 L339.2687 201.75 L344.2687 204.75 Z" clip-path="url(#clipPath2)" stroke="none"/>
      <path fill="none" d="M500.9203 360.6612 L266.3938 300.6412" clip-path="url(#clipPath2)"/>
      <path d="M258.6436 298.6578 L269.0292 306.4768 L267.3625 300.8892 L271.5085 296.7891 Z" clip-path="url(#clipPath2)" stroke="none"/>
      <path fill="none" d="M145.6959 284.2 L90.2481 284.2" clip-path="url(#clipPath2)"/>
      <path d="M82.2481 284.2 L94.2481 289.2 L91.2481 284.2 L94.2481 279.2 Z" clip-path="url(#clipPath2)" stroke="none"/>
      <path fill="none" d="M500.9203 364.5 L266.6436 364.5" clip-path="url(#clipPath2)"/>
      <path d="M258.6436 364.5 L270.6436 369.5 L267.6436 364.5 L270.6436 359.5 Z" clip-path="url(#clipPath2)" stroke="none"/>
      <path fill="none" d="M413.913 431.7728 L266.2567 384.8654" clip-path="url(#clipPath2)"/>
      <path d="M258.6322 382.4432 L268.5551 390.8418 L267.2098 385.1682 L271.5828 381.3112 Z" clip-path="url(#clipPath2)" stroke="none"/>
      <path fill="none" d="M145.6959 364.5 L96.6895 364.5" clip-path="url(#clipPath2)"/>
      <path d="M88.6895 364.5 L100.6895 369.5 L97.6895 364.5 L100.6895 359.5 Z" clip-path="url(#clipPath2)" stroke="none"/>
      <path fill="none" d="M294.7788 444.8 L266.6409 444.8" clip-path="url(#clipPath2)"/>
      <path d="M258.6409 444.8 L270.6409 449.8 L267.6409 444.8 L270.6409 439.8 Z" clip-path="url(#clipPath2)" stroke="none"/>
      <path fill="none" d="M145.6959 444.8 L109.748 444.8" clip-path="url(#clipPath2)"/>
      <path d="M101.748 444.8 L113.748 449.8 L110.748 444.8 L113.748 439.8 Z" clip-path="url(#clipPath2)" stroke="none"/>
    </g>
  </g>
</svg>
