<?xml version="1.0" encoding="UTF-8"?><svg xmlns="http://www.w3.org/2000/svg" xmlns:xlink="http://www.w3.org/1999/xlink" fill-opacity="1" color-rendering="auto" color-interpolation="auto" text-rendering="auto" stroke="black" stroke-linecap="square" width="887" stroke-miterlimit="10" shape-rendering="auto" stroke-opacity="1" fill="black" stroke-dasharray="none" font-weight="normal" stroke-width="1" height="661" font-family="'Dialog'" font-style="normal" stroke-linejoin="miter" font-size="12px" stroke-dashoffset="0" image-rendering="auto">
  <!--Generated by ySVG 2.5-->
  <defs id="genericDefs"/>
  <g>
    <defs id="defs1">
      <clipPath clipPathUnits="userSpaceOnUse" id="clipPath1">
        <path d="M0 0 L887 0 L887 661 L0 661 L0 0 Z"/>
      </clipPath>
      <clipPath clipPathUnits="userSpaceOnUse" id="clipPath2">
        <path d="M-54 -10 L833 -10 L833 651 L-54 651 L-54 -10 Z"/>
      </clipPath>
    </defs>
    <g fill="white" text-rendering="geometricPrecision" shape-rendering="geometricPrecision" transform="translate(54,10)" stroke="white">
      <rect x="-54" width="887" height="661" y="-10" clip-path="url(#clipPath2)" stroke="none"/>
    </g>
    <g fill="rgb(255,204,0)" text-rendering="geometricPrecision" shape-rendering="geometricPrecision" transform="matrix(1,0,0,1,54,10)" stroke="rgb(255,204,0)">
      <rect x="-10.1062" width="67.5" height="44" y="543.95" clip-path="url(#clipPath2)" stroke="none"/>
    </g>
    <g text-rendering="geometricPrecision" stroke-miterlimit="1.45" shape-rendering="geometricPrecision" transform="matrix(1,0,0,1,54,10)" stroke-linecap="butt">
      <rect fill="none" x="-10.1062" width="67.5" height="44" y="543.95" clip-path="url(#clipPath2)"/>
      <text x="3.965" xml:space="preserve" y="570.6639" clip-path="url(#clipPath2)" font-family="sans-serif" stroke="none">Module</text>
    </g>
    <g fill="aqua" text-rendering="geometricPrecision" shape-rendering="geometricPrecision" transform="matrix(1,0,0,1,54,10)" stroke="aqua">
      <rect x="143.3938" width="67.5" height="30" y="550.95" clip-path="url(#clipPath2)" stroke="none"/>
      <rect x="143.3938" width="1" height="30" y="550.95" clip-path="url(#clipPath2)" stroke="none"/>
      <rect x="144.3938" width="65.5" height="1" y="550.95" clip-path="url(#clipPath2)" stroke="none"/>
      <rect x="144.3938" y="579.95" clip-path="url(#clipPath2)" fill="rgb(0,178,178)" width="66.5" height="1" stroke="none"/>
      <rect x="209.8938" y="550.95" clip-path="url(#clipPath2)" fill="rgb(0,178,178)" width="1" height="29" stroke="none"/>
    </g>
    <g text-rendering="geometricPrecision" stroke-miterlimit="1.45" shape-rendering="geometricPrecision" font-family="sans-serif" transform="matrix(1,0,0,1,54,10)" stroke-linecap="butt">
      <text x="155.133" xml:space="preserve" y="570.6639" clip-path="url(#clipPath2)" stroke="none">External</text>
    </g>
    <g fill="rgb(255,204,0)" text-rendering="geometricPrecision" shape-rendering="geometricPrecision" transform="matrix(1,0,0,1,54,10)" stroke="rgb(255,204,0)">
      <rect x="72.3938" y="543.95" clip-path="url(#clipPath2)" width="56" rx="4" ry="4" height="44" stroke="none"/>
    </g>
    <g text-rendering="geometricPrecision" stroke-miterlimit="1.45" shape-rendering="geometricPrecision" transform="matrix(1,0,0,1,54,10)" stroke-linecap="butt">
      <rect x="72.3938" y="543.95" clip-path="url(#clipPath2)" fill="none" width="56" rx="4" ry="4" height="44"/>
      <text x="85.3908" xml:space="preserve" y="570.6639" clip-path="url(#clipPath2)" font-family="sans-serif" stroke="none">Class</text>
    </g>
    <g fill="rgb(255,204,0)" text-rendering="geometricPrecision" shape-rendering="geometricPrecision" transform="matrix(1,0,0,1,54,10)" stroke="rgb(255,204,0)">
      <rect x="223.3445" y="543.95" clip-path="url(#clipPath2)" width="89" rx="4" ry="4" height="44" stroke="none"/>
    </g>
    <g text-rendering="geometricPrecision" stroke-miterlimit="1.45" shape-rendering="geometricPrecision" transform="matrix(1,0,0,1,54,10)" stroke-linecap="butt">
      <rect x="223.3445" y="543.95" clip-path="url(#clipPath2)" fill="none" width="89" rx="4" ry="4" height="44"/>
      <text x="229.1639" xml:space="preserve" y="570.6639" clip-path="url(#clipPath2)" font-family="sans-serif" stroke="none">FrameListener</text>
      <line y2="573.3006" fill="none" x1="229.1639" clip-path="url(#clipPath2)" x2="306.5252" y1="573.3006"/>
    </g>
    <g fill="rgb(245,245,245)" text-rendering="geometricPrecision" shape-rendering="geometricPrecision" transform="matrix(1,0,0,1,54,10)" stroke="rgb(245,245,245)">
      <rect x="316.3938" y="5.9971" clip-path="url(#clipPath2)" width="249.0266" rx="4" ry="4" height="104.3765" stroke="none"/>
      <rect x="316.3938" y="5.9971" clip-path="url(#clipPath2)" fill="rgb(235,235,235)" width="249.0266" height="22.3765" stroke="none"/>
    </g>
    <g font-size="15px" stroke-linecap="butt" transform="matrix(1,0,0,1,54,10)" text-rendering="geometricPrecision" font-family="sans-serif" shape-rendering="geometricPrecision" stroke-miterlimit="1.45">
      <text x="518.391" xml:space="preserve" y="23.0776" clip-path="url(#clipPath2)" stroke="none">Output</text>
      <rect x="316.3938" y="5.9971" clip-path="url(#clipPath2)" fill="none" width="249.0266" stroke-dasharray="6,2" rx="4" ry="4" height="104.3765"/>
    </g>
    <g fill="lime" text-rendering="geometricPrecision" shape-rendering="geometricPrecision" transform="matrix(1,0,0,1,54,10)" stroke="lime">
      <ellipse rx="34.5" ry="26" clip-path="url(#clipPath2)" cx="515.9203" cy="69.3735" stroke="none"/>
    </g>
    <g text-rendering="geometricPrecision" stroke-miterlimit="1.45" shape-rendering="geometricPrecision" transform="matrix(1,0,0,1,54,10)" stroke-linecap="butt">
      <ellipse rx="34.5" fill="none" ry="26" clip-path="url(#clipPath2)" cx="515.9203" cy="69.3735"/>
      <text x="495.2484" xml:space="preserve" y="74.0874" clip-path="url(#clipPath2)" font-family="sans-serif" stroke="none">Overlay</text>
    </g>
    <g fill="lime" text-rendering="geometricPrecision" shape-rendering="geometricPrecision" transform="matrix(1,0,0,1,54,10)" stroke="lime">
      <ellipse rx="34.5" ry="26" clip-path="url(#clipPath2)" cx="365.8938" cy="69.3735" stroke="none"/>
    </g>
    <g text-rendering="geometricPrecision" stroke-miterlimit="1.45" shape-rendering="geometricPrecision" transform="matrix(1,0,0,1,54,10)" stroke-linecap="butt">
      <ellipse rx="34.5" fill="none" ry="26" clip-path="url(#clipPath2)" cx="365.8938" cy="69.3735"/>
      <text x="348.881" xml:space="preserve" y="74.0874" clip-path="url(#clipPath2)" font-family="sans-serif" stroke="none">Scene</text>
      <path fill="none" d="M400.3937 69.3735 L473.4203 69.3735" clip-path="url(#clipPath2)"/>
      <path d="M481.4203 69.3735 L469.4203 64.3735 L472.4203 69.3735 L469.4203 74.3735 Z" clip-path="url(#clipPath2)" stroke="none"/>
    </g>
    <g fill="rgb(245,245,245)" text-rendering="geometricPrecision" shape-rendering="geometricPrecision" transform="matrix(1,0,0,1,54,10)" stroke="rgb(245,245,245)">
      <rect x="669.3078" y="5.9971" clip-path="url(#clipPath2)" width="99" rx="4" ry="4" height="104.3765" stroke="none"/>
      <rect x="669.3078" y="5.9971" clip-path="url(#clipPath2)" fill="rgb(235,235,235)" width="99" height="22.3765" stroke="none"/>
    </g>
    <g font-size="15px" stroke-linecap="butt" transform="matrix(1,0,0,1,54,10)" text-rendering="geometricPrecision" font-family="sans-serif" shape-rendering="geometricPrecision" stroke-miterlimit="1.45">
      <text x="732.946" xml:space="preserve" y="23.0776" clip-path="url(#clipPath2)" stroke="none">Input</text>
      <rect x="669.3078" y="5.9971" clip-path="url(#clipPath2)" fill="none" width="99" stroke-dasharray="6,2" rx="4" ry="4" height="104.3765"/>
    </g>
    <g fill="lime" text-rendering="geometricPrecision" shape-rendering="geometricPrecision" transform="matrix(1,0,0,1,54,10)" stroke="lime">
      <ellipse rx="34.5" ry="26" clip-path="url(#clipPath2)" cx="718.8078" cy="69.3735" stroke="none"/>
    </g>
    <g text-rendering="geometricPrecision" stroke-miterlimit="1.45" shape-rendering="geometricPrecision" transform="matrix(1,0,0,1,54,10)" stroke-linecap="butt">
      <ellipse rx="34.5" fill="none" ry="26" clip-path="url(#clipPath2)" cx="718.8078" cy="69.3735"/>
      <text x="699.132" xml:space="preserve" y="66.7368" clip-path="url(#clipPath2)" font-family="sans-serif" stroke="none">Mouse/</text>
      <text x="693.1232" xml:space="preserve" y="81.438" clip-path="url(#clipPath2)" font-family="sans-serif" stroke="none">Keyboard</text>
    </g>
    <g fill="rgb(245,245,245)" text-rendering="geometricPrecision" shape-rendering="geometricPrecision" transform="matrix(1,0,0,1,54,10)" stroke="rgb(245,245,245)">
      <rect x="325.9203" y="529.15" clip-path="url(#clipPath2)" width="306.5" rx="4" ry="4" height="106.5493" stroke="none"/>
      <rect x="325.9203" y="529.15" clip-path="url(#clipPath2)" fill="rgb(235,235,235)" width="306.5" height="22.3765" stroke="none"/>
    </g>
    <g font-size="15px" stroke-linecap="butt" transform="matrix(1,0,0,1,54,10)" text-rendering="geometricPrecision" font-family="sans-serif" shape-rendering="geometricPrecision" stroke-miterlimit="1.45">
      <text x="557.8959" xml:space="preserve" y="546.2306" clip-path="url(#clipPath2)" stroke="none">UserMedia</text>
      <rect x="325.9203" y="529.15" clip-path="url(#clipPath2)" fill="none" width="306.5" stroke-dasharray="6,2" rx="4" ry="4" height="106.5493"/>
    </g>
    <g fill="rgb(255,102,0)" text-rendering="geometricPrecision" shape-rendering="geometricPrecision" transform="matrix(1,0,0,1,54,10)" stroke="rgb(255,102,0)">
      <path d="M561.4203 582.3298 L577.8223 567.0993 L601.0183 567.0993 L617.4203 582.3298 L617.4203 603.8689 L601.0183 619.0993 L577.8223 619.0993 L561.4203 603.8689 Z" fill-rule="evenodd" clip-path="url(#clipPath2)" stroke="none"/>
    </g>
    <g text-rendering="geometricPrecision" stroke-miterlimit="1.45" shape-rendering="geometricPrecision" transform="matrix(1,0,0,1,54,10)" stroke-linecap="butt">
      <path fill="none" d="M561.4203 582.3298 L577.8223 567.0993 L601.0183 567.0993 L617.4203 582.3298 L617.4203 603.8689 L601.0183 619.0993 L577.8223 619.0993 L561.4203 603.8689 Z" fill-rule="evenodd" clip-path="url(#clipPath2)"/>
      <text x="572.0765" xml:space="preserve" y="590.4626" clip-path="url(#clipPath2)" font-family="sans-serif" stroke="none">Global</text>
      <text x="571.0834" xml:space="preserve" y="605.1638" clip-path="url(#clipPath2)" font-family="sans-serif" stroke="none">Scripts</text>
    </g>
    <g fill="rgb(255,102,0)" text-rendering="geometricPrecision" shape-rendering="geometricPrecision" transform="matrix(1,0,0,1,54,10)" stroke="rgb(255,102,0)">
      <path d="M340.9203 582.3298 L357.3223 567.0993 L380.5183 567.0993 L396.9203 582.3298 L396.9203 603.8689 L380.5183 619.0993 L357.3223 619.0993 L340.9203 603.8689 Z" fill-rule="evenodd" clip-path="url(#clipPath2)" stroke="none"/>
    </g>
    <g text-rendering="geometricPrecision" stroke-miterlimit="1.45" shape-rendering="geometricPrecision" transform="matrix(1,0,0,1,54,10)" stroke-linecap="butt">
      <path fill="none" d="M340.9203 582.3298 L357.3223 567.0993 L380.5183 567.0993 L396.9203 582.3298 L396.9203 603.8689 L380.5183 619.0993 L357.3223 619.0993 L340.9203 603.8689 Z" fill-rule="evenodd" clip-path="url(#clipPath2)"/>
      <text x="349.5785" xml:space="preserve" y="597.8132" clip-path="url(#clipPath2)" font-family="sans-serif" stroke="none">Models</text>
    </g>
    <g fill="rgb(255,102,0)" text-rendering="geometricPrecision" shape-rendering="geometricPrecision" transform="matrix(1,0,0,1,54,10)" stroke="rgb(255,102,0)">
      <path d="M414.4203 582.3298 L430.8223 567.0993 L454.0183 567.0993 L470.4203 582.3298 L470.4203 603.8689 L454.0183 619.0993 L430.8223 619.0993 L414.4203 603.8689 Z" fill-rule="evenodd" clip-path="url(#clipPath2)" stroke="none"/>
    </g>
    <g text-rendering="geometricPrecision" stroke-miterlimit="1.45" shape-rendering="geometricPrecision" transform="matrix(1,0,0,1,54,10)" stroke-linecap="butt">
      <path fill="none" d="M414.4203 582.3298 L430.8223 567.0993 L454.0183 567.0993 L470.4203 582.3298 L470.4203 603.8689 L454.0183 619.0993 L430.8223 619.0993 L414.4203 603.8689 Z" fill-rule="evenodd" clip-path="url(#clipPath2)"/>
      <text x="427.4145" xml:space="preserve" y="590.4626" clip-path="url(#clipPath2)" font-family="sans-serif" stroke="none">Entity</text>
      <text x="424.0834" xml:space="preserve" y="605.1638" clip-path="url(#clipPath2)" font-family="sans-serif" stroke="none">Scripts</text>
    </g>
    <g fill="rgb(255,102,0)" text-rendering="geometricPrecision" shape-rendering="geometricPrecision" transform="matrix(1,0,0,1,54,10)" stroke="rgb(255,102,0)">
      <path d="M487.9203 582.3298 L504.3223 567.0993 L527.5183 567.0993 L543.9203 582.3298 L543.9203 603.8689 L527.5183 619.0993 L504.3223 619.0993 L487.9203 603.8689 Z" fill-rule="evenodd" clip-path="url(#clipPath2)" stroke="none"/>
    </g>
    <g text-rendering="geometricPrecision" stroke-miterlimit="1.45" shape-rendering="geometricPrecision" transform="matrix(1,0,0,1,54,10)" stroke-linecap="butt">
      <path fill="none" d="M487.9203 582.3298 L504.3223 567.0993 L527.5183 567.0993 L543.9203 582.3298 L543.9203 603.8689 L527.5183 619.0993 L504.3223 619.0993 L487.9203 603.8689 Z" fill-rule="evenodd" clip-path="url(#clipPath2)"/>
      <text x="494.9057" xml:space="preserve" y="597.8132" clip-path="url(#clipPath2)" font-family="sans-serif" stroke="none">Layouts</text>
    </g>
    <g fill="rgb(245,245,245)" text-rendering="geometricPrecision" shape-rendering="geometricPrecision" transform="matrix(1,0,0,1,54,10)" stroke="rgb(245,245,245)">
      <rect x="157.2813" y="125.3735" clip-path="url(#clipPath2)" width="660.1781" rx="4" ry="4" height="397.2765" stroke="none"/>
      <rect x="157.2813" y="125.3735" clip-path="url(#clipPath2)" fill="rgb(235,235,235)" width="660.1781" height="22.3765" stroke="none"/>
    </g>
    <g font-size="15px" stroke-linecap="butt" transform="matrix(1,0,0,1,54,10)" text-rendering="geometricPrecision" font-family="sans-serif" shape-rendering="geometricPrecision" stroke-miterlimit="1.45">
      <text x="757.9203" xml:space="preserve" y="142.4541" clip-path="url(#clipPath2)" stroke="none">Madgine</text>
      <rect x="157.2813" y="125.3735" clip-path="url(#clipPath2)" fill="none" width="660.1781" stroke-dasharray="6,2" rx="4" ry="4" height="397.2765"/>
    </g>
    <g fill="rgb(255,204,0)" text-rendering="geometricPrecision" shape-rendering="geometricPrecision" transform="matrix(1,0,0,1,54,10)" stroke="rgb(255,204,0)">
      <rect x="500.9203" width="30" height="30" y="310.05" clip-path="url(#clipPath2)" stroke="none"/>
    </g>
    <g text-rendering="geometricPrecision" stroke-miterlimit="1.45" shape-rendering="geometricPrecision" transform="matrix(1,0,0,1,54,10)" stroke-linecap="butt">
      <rect fill="none" x="500.9203" width="30" height="30" y="310.05" clip-path="url(#clipPath2)"/>
      <text x="505.2533" xml:space="preserve" y="329.7639" clip-path="url(#clipPath2)" font-family="sans-serif" stroke="none">GUI</text>
    </g>
    <g fill="rgb(255,204,0)" text-rendering="geometricPrecision" shape-rendering="geometricPrecision" transform="matrix(1,0,0,1,54,10)" stroke="rgb(255,204,0)">
      <rect x="402.7578" width="67.5" height="30" y="235.75" clip-path="url(#clipPath2)" stroke="none"/>
    </g>
    <g text-rendering="geometricPrecision" stroke-miterlimit="1.45" shape-rendering="geometricPrecision" transform="matrix(1,0,0,1,54,10)" stroke-linecap="butt">
      <rect fill="none" x="402.7578" width="67.5" height="30" y="235.75" clip-path="url(#clipPath2)"/>
      <text x="417.8428" xml:space="preserve" y="248.1133" clip-path="url(#clipPath2)" font-family="sans-serif" stroke="none">MyGUI</text>
      <text x="413.501" xml:space="preserve" y="262.8145" clip-path="url(#clipPath2)" font-family="sans-serif" stroke="none">Wrapper</text>
    </g>
    <g fill="rgb(255,204,0)" text-rendering="geometricPrecision" shape-rendering="geometricPrecision" transform="matrix(1,0,0,1,54,10)" stroke="rgb(255,204,0)">
      <rect x="482.1703" width="67.5" height="30" y="235.75" clip-path="url(#clipPath2)" stroke="none"/>
    </g>
    <g text-rendering="geometricPrecision" stroke-miterlimit="1.45" shape-rendering="geometricPrecision" transform="matrix(1,0,0,1,54,10)" stroke-linecap="butt">
      <rect fill="none" x="482.1703" width="67.5" height="30" y="235.75" clip-path="url(#clipPath2)"/>
      <text x="496.9184" xml:space="preserve" y="248.1133" clip-path="url(#clipPath2)" font-family="sans-serif" stroke="none">CEGUI</text>
      <text x="492.9135" xml:space="preserve" y="262.8145" clip-path="url(#clipPath2)" font-family="sans-serif" stroke="none">Wrapper</text>
    </g>
    <g fill="rgb(255,204,0)" text-rendering="geometricPrecision" shape-rendering="geometricPrecision" transform="matrix(1,0,0,1,54,10)" stroke="rgb(255,204,0)">
      <rect x="561.5828" width="67.5" height="30" y="235.75" clip-path="url(#clipPath2)" stroke="none"/>
    </g>
    <g text-rendering="geometricPrecision" stroke-miterlimit="1.45" shape-rendering="geometricPrecision" transform="matrix(1,0,0,1,54,10)" stroke-linecap="butt">
      <rect fill="none" x="561.5828" width="67.5" height="30" y="235.75" clip-path="url(#clipPath2)"/>
      <text x="590.3318" xml:space="preserve" y="248.1133" clip-path="url(#clipPath2)" font-family="sans-serif" stroke="none">...</text>
      <text x="572.326" xml:space="preserve" y="262.8145" clip-path="url(#clipPath2)" font-family="sans-serif" stroke="none">Wrapper</text>
    </g>
    <g fill="rgb(255,204,0)" text-rendering="geometricPrecision" shape-rendering="geometricPrecision" transform="matrix(1,0,0,1,54,10)" stroke="rgb(255,204,0)">
      <rect x="172.2813" y="463.65" clip-path="url(#clipPath2)" width="112.9875" rx="4" ry="4" height="44" stroke="none"/>
    </g>
    <g text-rendering="geometricPrecision" stroke-miterlimit="1.45" shape-rendering="geometricPrecision" transform="matrix(1,0,0,1,54,10)" stroke-linecap="butt">
      <rect x="172.2813" y="463.65" clip-path="url(#clipPath2)" fill="none" width="112.9875" rx="4" ry="4" height="44"/>
      <text x="182.7496" xml:space="preserve" y="490.3639" clip-path="url(#clipPath2)" font-family="sans-serif" stroke="none">EntityComponent</text>
    </g>
    <g fill="aqua" text-rendering="geometricPrecision" shape-rendering="geometricPrecision" transform="matrix(1,0,0,1,54,10)" stroke="aqua">
      <rect x="667.6641" width="30" height="30" y="162.75" clip-path="url(#clipPath2)" stroke="none"/>
    </g>
    <g text-rendering="geometricPrecision" stroke-miterlimit="1.45" shape-rendering="geometricPrecision" transform="matrix(1,0,0,1,54,10)" stroke-linecap="butt">
      <rect fill="none" x="667.6641" width="30" height="30" y="162.75" clip-path="url(#clipPath2)"/>
      <text x="672.3281" xml:space="preserve" y="182.4639" clip-path="url(#clipPath2)" font-family="sans-serif" stroke="none">OIS</text>
    </g>
    <g fill="aqua" text-rendering="geometricPrecision" shape-rendering="geometricPrecision" transform="matrix(1,0,0,1,54,10)" stroke="aqua">
      <rect x="412.5078" width="48" height="30" y="162.75" clip-path="url(#clipPath2)" stroke="none"/>
    </g>
    <g text-rendering="geometricPrecision" stroke-miterlimit="1.45" shape-rendering="geometricPrecision" transform="matrix(1,0,0,1,54,10)" stroke-linecap="butt">
      <rect fill="none" x="412.5078" width="48" height="30" y="162.75" clip-path="url(#clipPath2)"/>
      <text x="417.8428" xml:space="preserve" y="182.4639" clip-path="url(#clipPath2)" font-family="sans-serif" stroke="none">MyGUI</text>
    </g>
    <g fill="aqua" text-rendering="geometricPrecision" shape-rendering="geometricPrecision" transform="matrix(1,0,0,1,54,10)" stroke="aqua">
      <rect x="491.9203" width="48" height="30" y="162.75" clip-path="url(#clipPath2)" stroke="none"/>
    </g>
    <g text-rendering="geometricPrecision" stroke-miterlimit="1.45" shape-rendering="geometricPrecision" transform="matrix(1,0,0,1,54,10)" stroke-linecap="butt">
      <rect fill="none" x="491.9203" width="48" height="30" y="162.75" clip-path="url(#clipPath2)"/>
      <text x="496.9184" xml:space="preserve" y="182.4639" clip-path="url(#clipPath2)" font-family="sans-serif" stroke="none">CEGUI</text>
    </g>
    <g fill="aqua" text-rendering="geometricPrecision" shape-rendering="geometricPrecision" transform="matrix(1,0,0,1,54,10)" stroke="aqua">
      <rect x="571.3328" width="48" height="30" y="162.75" clip-path="url(#clipPath2)" stroke="none"/>
    </g>
    <g text-rendering="geometricPrecision" stroke-miterlimit="1.45" shape-rendering="geometricPrecision" transform="matrix(1,0,0,1,54,10)" stroke-linecap="butt">
      <rect fill="none" x="571.3328" width="48" height="30" y="162.75" clip-path="url(#clipPath2)"/>
      <text x="590.3318" xml:space="preserve" y="182.4639" clip-path="url(#clipPath2)" font-family="sans-serif" stroke="none">...</text>
    </g>
    <g fill="aqua" text-rendering="geometricPrecision" shape-rendering="geometricPrecision" transform="matrix(1,0,0,1,54,10)" stroke="aqua">
      <rect x="341.8938" width="48" height="30" y="162.75" clip-path="url(#clipPath2)" stroke="none"/>
    </g>
    <g text-rendering="geometricPrecision" stroke-miterlimit="1.45" shape-rendering="geometricPrecision" transform="matrix(1,0,0,1,54,10)" stroke-linecap="butt">
      <rect fill="none" x="341.8938" width="48" height="30" y="162.75" clip-path="url(#clipPath2)"/>
      <text x="348.2248" xml:space="preserve" y="182.4639" clip-path="url(#clipPath2)" font-family="sans-serif" stroke="none">OGRE</text>
    </g>
    <g fill="rgb(255,204,0)" text-rendering="geometricPrecision" shape-rendering="geometricPrecision" transform="matrix(1,0,0,1,54,10)" stroke="rgb(255,204,0)">
      <rect x="321.3938" y="463.65" clip-path="url(#clipPath2)" width="89" rx="4" ry="4" height="44" stroke="none"/>
    </g>
    <g text-rendering="geometricPrecision" stroke-miterlimit="1.45" shape-rendering="geometricPrecision" transform="matrix(1,0,0,1,54,10)" stroke-linecap="butt">
      <rect x="321.3938" y="463.65" clip-path="url(#clipPath2)" fill="none" width="89" rx="4" ry="4" height="44"/>
      <text x="346.218" xml:space="preserve" y="490.3639" clip-path="url(#clipPath2)" font-family="sans-serif" stroke="none">Entities</text>
    </g>
    <g fill="rgb(255,204,0)" text-rendering="geometricPrecision" shape-rendering="geometricPrecision" transform="matrix(1,0,0,1,54,10)" stroke="rgb(255,204,0)">
      <rect x="684.8078" y="303.05" clip-path="url(#clipPath2)" width="82" rx="4" ry="4" height="44" stroke="none"/>
    </g>
    <g text-rendering="geometricPrecision" stroke-miterlimit="1.45" shape-rendering="geometricPrecision" transform="matrix(1,0,0,1,54,10)" stroke-linecap="butt">
      <rect x="684.8078" y="303.05" clip-path="url(#clipPath2)" fill="none" width="82" rx="4" ry="4" height="44"/>
      <text x="691.4514" xml:space="preserve" y="329.7639" clip-path="url(#clipPath2)" font-family="sans-serif" stroke="none">InputHandler</text>
    </g>
    <g fill="aqua" text-rendering="geometricPrecision" shape-rendering="geometricPrecision" transform="matrix(1,0,0,1,54,10)" stroke="aqua">
      <rect x="749.3953" width="30" height="30" y="162.75" clip-path="url(#clipPath2)" stroke="none"/>
    </g>
    <g text-rendering="geometricPrecision" stroke-miterlimit="1.45" shape-rendering="geometricPrecision" transform="matrix(1,0,0,1,54,10)" stroke-linecap="butt">
      <rect fill="none" x="749.3953" width="30" height="30" y="162.75" clip-path="url(#clipPath2)"/>
      <text x="759.3943" xml:space="preserve" y="182.4639" clip-path="url(#clipPath2)" font-family="sans-serif" stroke="none">...</text>
    </g>
    <g fill="rgb(255,204,0)" text-rendering="geometricPrecision" shape-rendering="geometricPrecision" transform="matrix(1,0,0,1,54,10)" stroke="rgb(255,204,0)">
      <rect x="648.9141" width="67.5" height="30" y="235.75" clip-path="url(#clipPath2)" stroke="none"/>
    </g>
    <g text-rendering="geometricPrecision" stroke-miterlimit="1.45" shape-rendering="geometricPrecision" transform="matrix(1,0,0,1,54,10)" stroke-linecap="butt">
      <rect fill="none" x="648.9141" width="67.5" height="30" y="235.75" clip-path="url(#clipPath2)"/>
      <text x="672.3281" xml:space="preserve" y="248.1133" clip-path="url(#clipPath2)" font-family="sans-serif" stroke="none">OIS</text>
      <text x="659.6572" xml:space="preserve" y="262.8145" clip-path="url(#clipPath2)" font-family="sans-serif" stroke="none">Wrapper</text>
    </g>
    <g fill="rgb(255,204,0)" text-rendering="geometricPrecision" shape-rendering="geometricPrecision" transform="matrix(1,0,0,1,54,10)" stroke="rgb(255,204,0)">
      <rect x="730.6453" width="67.5" height="30" y="235.75" clip-path="url(#clipPath2)" stroke="none"/>
    </g>
    <g text-rendering="geometricPrecision" stroke-miterlimit="1.45" shape-rendering="geometricPrecision" transform="matrix(1,0,0,1,54,10)" stroke-linecap="butt">
      <rect fill="none" x="730.6453" width="67.5" height="30" y="235.75" clip-path="url(#clipPath2)"/>
      <text x="759.3943" xml:space="preserve" y="248.1133" clip-path="url(#clipPath2)" font-family="sans-serif" stroke="none">...</text>
      <text x="741.3885" xml:space="preserve" y="262.8145" clip-path="url(#clipPath2)" font-family="sans-serif" stroke="none">Wrapper</text>
    </g>
    <g fill="rgb(255,204,0)" text-rendering="geometricPrecision" shape-rendering="geometricPrecision" transform="matrix(1,0,0,1,54,10)" stroke="rgb(255,204,0)">
      <rect x="684.8078" y="383.35" clip-path="url(#clipPath2)" width="82" rx="4" ry="4" height="44" stroke="none"/>
    </g>
    <g text-rendering="geometricPrecision" stroke-miterlimit="1.45" shape-rendering="geometricPrecision" transform="matrix(1,0,0,1,54,10)" stroke-linecap="butt">
      <rect x="684.8078" y="383.35" clip-path="url(#clipPath2)" fill="none" width="82" rx="4" ry="4" height="44"/>
      <text x="696.4553" xml:space="preserve" y="410.0639" clip-path="url(#clipPath2)" font-family="sans-serif" stroke="none">Application</text>
      <line y2="412.7006" fill="none" x1="696.4553" clip-path="url(#clipPath2)" x2="755.1604" y1="412.7006"/>
      <path fill="none" d="M515.9203 567.0862 L515.9203 348.05" clip-path="url(#clipPath2)"/>
      <path d="M515.9203 340.05 L510.9203 352.05 L515.9203 349.05 L520.9203 352.05 Z" clip-path="url(#clipPath2)" stroke="none"/>
      <path fill="none" d="M500.9203 311.0157 L458.3817 271.2157" clip-path="url(#clipPath2)"/>
      <path d="M452.5399 265.75 L457.8865 277.5996 L459.1119 271.8989 L464.7187 270.2975 Z" clip-path="url(#clipPath2)" stroke="none"/>
      <path fill="none" d="M515.9203 310.05 L515.9203 273.75" clip-path="url(#clipPath2)"/>
      <path d="M515.9203 265.75 L510.9203 277.75 L515.9203 274.75 L520.9203 277.75 Z" clip-path="url(#clipPath2)" stroke="none"/>
      <path fill="none" d="M530.9203 311.0157 L573.4589 271.2157" clip-path="url(#clipPath2)"/>
      <path d="M579.3007 265.75 L567.1219 270.2975 L572.7287 271.8989 L573.9541 277.5997 Z" clip-path="url(#clipPath2)" stroke="none"/>
      <path fill="none" d="M710.3983 94.5893 L690.1921 155.1774" clip-path="url(#clipPath2)"/>
      <path d="M687.6611 162.7664 L696.2007 152.9647 L690.5084 154.2287 L686.7144 149.8009 Z" clip-path="url(#clipPath2)" stroke="none"/>
      <path fill="none" d="M436.5078 235.75 L436.5078 200.75" clip-path="url(#clipPath2)"/>
      <path d="M436.5078 192.75 L431.5078 204.75 L436.5078 201.75 L441.5078 204.75 Z" clip-path="url(#clipPath2)" stroke="none"/>
      <path fill="none" d="M447.5007 162.7477 L494.5143 98.5869" clip-path="url(#clipPath2)"/>
      <path d="M499.2428 92.1338 L488.117 98.8581 L493.9233 99.3935 L496.1833 104.7687 Z" clip-path="url(#clipPath2)" stroke="none"/>
      <path fill="none" d="M515.9203 235.75 L515.9203 200.75" clip-path="url(#clipPath2)"/>
      <path d="M515.9203 192.75 L510.9203 204.75 L515.9203 201.75 L520.9203 204.75 Z" clip-path="url(#clipPath2)" stroke="none"/>
      <path fill="none" d="M515.9203 162.75 L515.9203 103.3735" clip-path="url(#clipPath2)"/>
      <path d="M515.9203 95.3735 L510.9203 107.3735 L515.9203 104.3735 L520.9203 107.3735 Z" clip-path="url(#clipPath2)" stroke="none"/>
      <path fill="none" d="M595.3328 235.75 L595.3328 200.75" clip-path="url(#clipPath2)"/>
      <path d="M595.3328 192.75 L590.3328 204.75 L595.3328 201.75 L600.3328 204.75 Z" clip-path="url(#clipPath2)" stroke="none"/>
      <path fill="none" d="M584.3399 162.7477 L537.3263 98.5869" clip-path="url(#clipPath2)"/>
      <path d="M532.5978 92.1338 L535.6573 104.7687 L537.9174 99.3935 L543.7237 98.8581 Z" clip-path="url(#clipPath2)" stroke="none"/>
      <path fill="none" d="M365.8937 162.75 L365.8937 103.3735" clip-path="url(#clipPath2)"/>
      <path d="M365.8937 95.3735 L360.8937 107.3735 L365.8937 104.3735 L370.8937 107.3735 Z" clip-path="url(#clipPath2)" stroke="none"/>
      <path fill="none" d="M425.2453 572.2443 L377.1414 513.8334" clip-path="url(#clipPath2)"/>
      <path d="M372.0558 507.658 L375.8246 520.0996 L377.7772 514.6053 L383.5439 513.7425 Z" clip-path="url(#clipPath2)" stroke="none"/>
      <path fill="none" d="M368.188 567.1027 L366.7385 515.6406" clip-path="url(#clipPath2)"/>
      <path d="M366.5132 507.6438 L361.8531 519.7798 L366.7667 516.6403 L371.8492 519.4982 Z" clip-path="url(#clipPath2)" stroke="none"/>
      <path fill="none" d="M321.4038 485.65 L293.2659 485.65" clip-path="url(#clipPath2)"/>
      <path d="M285.2659 485.65 L297.2659 490.65 L294.2659 485.65 L297.2659 480.65 Z" clip-path="url(#clipPath2)" stroke="none"/>
      <path fill="none" d="M684.7885 325.05 L538.9203 325.05" clip-path="url(#clipPath2)"/>
      <path d="M530.9203 325.05 L542.9203 330.05 L539.9203 325.05 L542.9203 320.05 Z" clip-path="url(#clipPath2)" stroke="none"/>
      <path fill="none" d="M729.2332 94.158 L754.9838 155.3758" clip-path="url(#clipPath2)"/>
      <path d="M758.0857 162.75 L758.0417 149.7501 L754.5961 154.4541 L748.824 153.6274 Z" clip-path="url(#clipPath2)" stroke="none"/>
      <path fill="none" d="M682.6641 192.75 L682.6641 227.75" clip-path="url(#clipPath2)"/>
      <path d="M682.6641 235.75 L687.6641 223.75 L682.6641 226.75 L677.6641 223.75 Z" clip-path="url(#clipPath2)" stroke="none"/>
      <path fill="none" d="M691.3741 265.75 L709.0293 296.1548" clip-path="url(#clipPath2)"/>
      <path d="M713.0465 303.0731 L711.3446 290.185 L708.5272 295.2901 L702.6968 295.2065 Z" clip-path="url(#clipPath2)" stroke="none"/>
      <path fill="none" d="M764.3953 192.75 L764.3953 227.75" clip-path="url(#clipPath2)"/>
      <path d="M764.3953 235.75 L769.3953 223.75 L764.3953 226.75 L759.3953 223.75 Z" clip-path="url(#clipPath2)" stroke="none"/>
      <path fill="none" d="M756.6051 265.75 L740.9086 295.9735" clip-path="url(#clipPath2)"/>
      <path d="M737.2214 303.0731 L747.1895 294.7281 L741.3695 295.086 L738.315 290.1192 Z" clip-path="url(#clipPath2)" stroke="none"/>
      <path fill="none" d="M725.8078 383.3538 L725.8078 355.0562" clip-path="url(#clipPath2)"/>
      <path d="M725.8078 347.0562 L720.8078 359.0562 L725.8078 356.0562 L730.8078 359.0562 Z" clip-path="url(#clipPath2)" stroke="none"/>
    </g>
    <g fill="rgb(245,245,245)" text-rendering="geometricPrecision" shape-rendering="geometricPrecision" transform="matrix(1,0,0,1,54,10)" stroke="rgb(245,245,245)">
      <rect x="-38.6062" y="111.3735" clip-path="url(#clipPath2)" width="182" rx="4" ry="4" height="411.2765" stroke="none"/>
      <rect x="-38.6062" y="111.3735" clip-path="url(#clipPath2)" fill="rgb(235,235,235)" width="182" height="22.3765" stroke="none"/>
    </g>
    <g font-size="15px" stroke-linecap="butt" transform="matrix(1,0,0,1,54,10)" text-rendering="geometricPrecision" font-family="sans-serif" shape-rendering="geometricPrecision" stroke-miterlimit="1.45">
      <text x="73.8645" xml:space="preserve" y="128.4541" clip-path="url(#clipPath2)" stroke="none">UserCode</text>
      <rect x="-38.6062" y="111.3735" clip-path="url(#clipPath2)" fill="none" width="182" stroke-dasharray="6,2" rx="4" ry="4" height="411.2765"/>
    </g>
    <g fill="rgb(255,204,0)" text-rendering="geometricPrecision" shape-rendering="geometricPrecision" transform="matrix(1,0,0,1,54,10)" stroke="rgb(255,204,0)">
      <rect x="-19.2359" y="463.65" clip-path="url(#clipPath2)" width="143.2594" rx="4" ry="4" height="44" stroke="none"/>
    </g>
    <g text-rendering="geometricPrecision" stroke-miterlimit="1.45" shape-rendering="geometricPrecision" transform="matrix(1,0,0,1,54,10)" stroke-linecap="butt">
      <rect x="-19.2359" y="463.65" clip-path="url(#clipPath2)" fill="none" width="143.2594" rx="4" ry="4" height="44"/>
      <text x="-15.9705" xml:space="preserve" y="490.3639" clip-path="url(#clipPath2)" font-family="sans-serif" stroke="none">Custom EntityComponent</text>
    </g>
    <g fill="rgb(255,204,0)" text-rendering="geometricPrecision" shape-rendering="geometricPrecision" transform="matrix(1,0,0,1,54,10)" stroke="rgb(255,204,0)">
      <rect x="-4.1" y="222.75" clip-path="url(#clipPath2)" width="112.9875" rx="4" ry="4" height="44" stroke="none"/>
    </g>
    <g text-rendering="geometricPrecision" stroke-miterlimit="1.45" shape-rendering="geometricPrecision" transform="matrix(1,0,0,1,54,10)" stroke-linecap="butt">
      <rect x="-4.1" y="222.75" clip-path="url(#clipPath2)" fill="none" width="112.9875" rx="4" ry="4" height="44"/>
      <text x="-0.2937" xml:space="preserve" y="249.4639" clip-path="url(#clipPath2)" font-family="sans-serif" stroke="none">Custom GuiHandler</text>
    </g>
    <g fill="rgb(255,204,0)" text-rendering="geometricPrecision" shape-rendering="geometricPrecision" transform="matrix(1,0,0,1,54,10)" stroke="rgb(255,204,0)">
      <rect x="-10.5469" y="303.05" clip-path="url(#clipPath2)" width="125.8813" rx="4" ry="4" height="44" stroke="none"/>
    </g>
    <g text-rendering="geometricPrecision" stroke-miterlimit="1.45" shape-rendering="geometricPrecision" transform="matrix(1,0,0,1,54,10)" stroke-linecap="butt">
      <rect x="-10.5469" y="303.05" clip-path="url(#clipPath2)" fill="none" width="125.8813" rx="4" ry="4" height="44"/>
      <text x="-7.2957" xml:space="preserve" y="329.7639" clip-path="url(#clipPath2)" font-family="sans-serif" stroke="none">Custom GameHandler</text>
    </g>
    <g fill="rgb(255,204,0)" text-rendering="geometricPrecision" shape-rendering="geometricPrecision" transform="matrix(1,0,0,1,54,10)" stroke="rgb(255,204,0)">
      <rect x="-23.6062" y="383.35" clip-path="url(#clipPath2)" width="152" rx="4" ry="4" height="44" stroke="none"/>
    </g>
    <g text-rendering="geometricPrecision" stroke-miterlimit="1.45" shape-rendering="geometricPrecision" transform="matrix(1,0,0,1,54,10)" stroke-linecap="butt">
      <rect x="-23.6062" y="383.35" clip-path="url(#clipPath2)" fill="none" width="152" rx="4" ry="4" height="44"/>
      <text x="-17.9773" xml:space="preserve" y="410.0639" clip-path="url(#clipPath2)" font-family="sans-serif" stroke="none">Custom SceneComponent</text>
    </g>
    <g fill="rgb(255,204,0)" text-rendering="geometricPrecision" shape-rendering="geometricPrecision" transform="matrix(1,0,0,1,54,10)" stroke="rgb(255,204,0)">
      <rect x="-3.7375" y="148.75" clip-path="url(#clipPath2)" width="112.9875" rx="4" ry="4" height="44" stroke="none"/>
    </g>
    <g text-rendering="geometricPrecision" stroke-miterlimit="1.45" shape-rendering="geometricPrecision" transform="matrix(1,0,0,1,54,10)" stroke-linecap="butt">
      <rect x="-3.7375" y="148.75" clip-path="url(#clipPath2)" fill="none" width="112.9875" rx="4" ry="4" height="44"/>
      <text x="3.4027" xml:space="preserve" y="175.4639" clip-path="url(#clipPath2)" font-family="sans-serif" stroke="none">Custom GlobalAPI</text>
    </g>
    <g fill="rgb(255,204,0)" text-rendering="geometricPrecision" shape-rendering="geometricPrecision" transform="matrix(1,0,0,1,54,10)" stroke="rgb(255,204,0)">
      <rect x="547.0828" y="383.35" clip-path="url(#clipPath2)" width="82" rx="4" ry="4" height="44" stroke="none"/>
    </g>
    <g text-rendering="geometricPrecision" stroke-miterlimit="1.45" shape-rendering="geometricPrecision" transform="matrix(1,0,0,1,54,10)" stroke-linecap="butt">
      <rect x="547.0828" y="383.35" clip-path="url(#clipPath2)" fill="none" width="82" rx="4" ry="4" height="44"/>
      <text x="558.4022" xml:space="preserve" y="410.0639" clip-path="url(#clipPath2)" font-family="sans-serif" stroke="none">UIManager</text>
    </g>
    <g fill="rgb(255,204,0)" text-rendering="geometricPrecision" shape-rendering="geometricPrecision" transform="matrix(1,0,0,1,54,10)" stroke="rgb(255,204,0)">
      <rect x="321.3938" y="383.35" clip-path="url(#clipPath2)" width="89" rx="4" ry="4" height="44" stroke="none"/>
    </g>
    <g text-rendering="geometricPrecision" stroke-miterlimit="1.45" shape-rendering="geometricPrecision" transform="matrix(1,0,0,1,54,10)" stroke-linecap="butt">
      <rect x="321.3938" y="383.35" clip-path="url(#clipPath2)" fill="none" width="89" rx="4" ry="4" height="44"/>
      <text x="325.2004" xml:space="preserve" y="410.0639" clip-path="url(#clipPath2)" font-family="sans-serif" stroke="none">SceneManager</text>
    </g>
    <g fill="rgb(255,204,0)" text-rendering="geometricPrecision" shape-rendering="geometricPrecision" transform="matrix(1,0,0,1,54,10)" stroke="rgb(255,204,0)">
      <rect x="172.2813" y="222.75" clip-path="url(#clipPath2)" width="112.9875" rx="4" ry="4" height="44" stroke="none"/>
    </g>
    <g text-rendering="geometricPrecision" stroke-miterlimit="1.45" shape-rendering="geometricPrecision" transform="matrix(1,0,0,1,54,10)" stroke-linecap="butt">
      <rect x="172.2813" y="222.75" clip-path="url(#clipPath2)" fill="none" width="112.9875" rx="4" ry="4" height="44"/>
      <text x="198.4264" xml:space="preserve" y="249.4639" clip-path="url(#clipPath2)" font-family="sans-serif" stroke="none">GuiHandler</text>
    </g>
    <g fill="rgb(255,204,0)" text-rendering="geometricPrecision" shape-rendering="geometricPrecision" transform="matrix(1,0,0,1,54,10)" stroke="rgb(255,204,0)">
      <rect x="172.2813" y="303.05" clip-path="url(#clipPath2)" width="112.9875" rx="4" ry="4" height="44" stroke="none"/>
    </g>
    <g text-rendering="geometricPrecision" stroke-miterlimit="1.45" shape-rendering="geometricPrecision" transform="matrix(1,0,0,1,54,10)" stroke-linecap="butt">
      <rect x="172.2813" y="303.05" clip-path="url(#clipPath2)" fill="none" width="112.9875" rx="4" ry="4" height="44"/>
      <text x="191.4244" xml:space="preserve" y="329.7639" clip-path="url(#clipPath2)" font-family="sans-serif" stroke="none">GameHandler</text>
    </g>
    <g fill="rgb(255,204,0)" text-rendering="geometricPrecision" shape-rendering="geometricPrecision" transform="matrix(1,0,0,1,54,10)" stroke="rgb(255,204,0)">
      <rect x="172.2813" y="383.35" clip-path="url(#clipPath2)" width="112.9875" rx="4" ry="4" height="44" stroke="none"/>
    </g>
    <g text-rendering="geometricPrecision" stroke-miterlimit="1.45" shape-rendering="geometricPrecision" transform="matrix(1,0,0,1,54,10)" stroke-linecap="butt">
      <rect x="172.2813" y="383.35" clip-path="url(#clipPath2)" fill="none" width="112.9875" rx="4" ry="4" height="44"/>
      <text x="177.4059" xml:space="preserve" y="410.0639" clip-path="url(#clipPath2)" font-family="sans-serif" stroke="none">SceneComponenet</text>
      <path fill="none" d="M172.3209 485.65 L132.0397 485.65" clip-path="url(#clipPath2)"/>
      <path d="M124.0397 485.65 L136.0397 490.65 L133.0397 485.65 L136.0397 480.65 Z" clip-path="url(#clipPath2)" stroke="none"/>
      <path fill="none" d="M52.3937 463.6537 L52.3937 435.3563" clip-path="url(#clipPath2)"/>
      <path d="M52.3937 427.3563 L47.3937 439.3563 L52.3937 436.3563 L57.3937 439.3563 Z" clip-path="url(#clipPath2)" stroke="none"/>
      <path fill="none" d="M52.3937 427.3463 L52.3937 455.6437" clip-path="url(#clipPath2)"/>
      <path d="M52.3937 463.6437 L57.3937 451.6437 L52.3937 454.6437 L47.3937 451.6437 Z" clip-path="url(#clipPath2)" stroke="none"/>
      <path fill="none" d="M684.8198 405.35 L637.1299 405.35" clip-path="url(#clipPath2)"/>
      <path d="M629.1299 405.35 L641.1299 410.35 L638.1299 405.35 L641.1299 400.35 Z" clip-path="url(#clipPath2)" stroke="none"/>
      <path fill="none" d="M547.1004 405.35 L418.3549 405.35" clip-path="url(#clipPath2)"/>
      <path d="M410.3549 405.35 L422.3549 410.35 L419.3549 405.35 L422.3549 400.35 Z" clip-path="url(#clipPath2)" stroke="none"/>
      <path fill="none" d="M365.8937 383.3735 L365.8937 200.75" clip-path="url(#clipPath2)"/>
      <path d="M365.8937 192.75 L360.8937 204.75 L365.8937 201.75 L370.8937 204.75 Z" clip-path="url(#clipPath2)" stroke="none"/>
      <path fill="none" d="M365.8937 427.3463 L365.8937 455.6437" clip-path="url(#clipPath2)"/>
      <path d="M365.8937 463.6437 L370.8937 451.6437 L365.8937 454.6437 L360.8937 451.6437 Z" clip-path="url(#clipPath2)" stroke="none"/>
      <path fill="none" d="M500.9203 320.8553 L292.9881 262.7072" clip-path="url(#clipPath2)"/>
      <path d="M285.2837 260.5526 L295.4937 268.5997 L293.9511 262.9765 L298.1869 258.9692 Z" clip-path="url(#clipPath2)" stroke="none"/>
      <path fill="none" d="M172.3209 244.75 L116.8731 244.75" clip-path="url(#clipPath2)"/>
      <path d="M108.8731 244.75 L120.8731 249.75 L117.8731 244.75 L120.8731 239.75 Z" clip-path="url(#clipPath2)" stroke="none"/>
      <path fill="none" d="M500.9203 325.05 L293.2837 325.05" clip-path="url(#clipPath2)"/>
      <path d="M285.2837 325.05 L297.2837 330.05 L294.2837 325.05 L297.2837 320.05 Z" clip-path="url(#clipPath2)" stroke="none"/>
      <path fill="none" d="M547.0729 396.1849 L293.0383 339.4119" clip-path="url(#clipPath2)"/>
      <path d="M285.2309 337.6671 L295.8515 345.1639 L294.0143 339.63 L298.0326 335.4047 Z" clip-path="url(#clipPath2)" stroke="none"/>
      <path fill="none" d="M172.3209 325.05 L123.3145 325.05" clip-path="url(#clipPath2)"/>
      <path d="M115.3145 325.05 L127.3145 330.05 L124.3145 325.05 L127.3145 320.05 Z" clip-path="url(#clipPath2)" stroke="none"/>
      <path fill="none" d="M321.4038 405.35 L293.2659 405.35" clip-path="url(#clipPath2)"/>
      <path d="M285.2659 405.35 L297.2659 410.35 L294.2659 405.35 L297.2659 400.35 Z" clip-path="url(#clipPath2)" stroke="none"/>
      <path fill="none" d="M172.3209 405.35 L136.373 405.35" clip-path="url(#clipPath2)"/>
      <path d="M128.373 405.35 L140.373 410.35 L137.373 405.35 L140.373 400.35 Z" clip-path="url(#clipPath2)" stroke="none"/>
    </g>
  </g>
</svg>
